<svg id="logo" xmlns="http://www.w3.org/2000/svg" width="264.938" height="27.063" viewBox="0 0 264.938 27.063">
  <metadata><?xpacket begin="﻿" id="W5M0MpCehiHzreSzNTczkc9d"?>
<x:xmpmeta xmlns:x="adobe:ns:meta/" x:xmptk="Adobe XMP Core 5.6-c138 79.159824, 2016/09/14-01:09:01        ">
   <rdf:RDF xmlns:rdf="http://www.w3.org/1999/02/22-rdf-syntax-ns#">
      <rdf:Description rdf:about=""/>
   </rdf:RDF>
</x:xmpmeta>
                                                                                                    
                                                                                                    
                                                                                                    
                                                                                                    
                                                                                                    
                                                                                                    
                                                                                                    
                                                                                                    
                                                                                                    
                                                                                                    
                                                                                                    
                                                                                                    
                                                                                                    
                                                                                                    
                                                                                                    
                                                                                                    
                                                                                                    
                                                                                                    
                                                                                                    
                                                                                                    
                           
<?xpacket end="w"?></metadata>
<defs>
    <style>
      .cls-1 {
        fill: #fe8c00;
      }

      .cls-1, .cls-2 {
        fill-rule: evenodd;
      }

      .cls-2 {
        fill: #15a641;
      }
    </style>
  </defs>
  <g>
    <path id="Vector" class="cls-1" d="M400.986,22.329v16.9h4.97V31.816h6.827V26.946H405.67Zm0-2.815,4.955,4.885h12.318V19.514H400.986Z" transform="translate(-401 -19.5)"/>
    <path id="Vector-2" data-name="Vector" class="cls-2" d="M420.528,19.521h30.9l-2.451,4.885H420.528V19.521Z" transform="translate(-401 -19.5)"/>
    <path id="Vector-3" data-name="Vector" class="cls-2" d="M420.528,26.946h30.9l-2.451,4.885H420.528V26.946Z" transform="translate(-401 -19.5)"/>
    <path id="Vector-4" data-name="Vector" class="cls-2" d="M420.528,34.35h30.9l-2.451,4.885H420.528V34.35Z" transform="translate(-401 -19.5)"/>
    <path id="Vector-5" data-name="Vector" class="cls-2" d="M401.008,41.7h50.417l-2.451,4.862H401.008V41.7Z" transform="translate(-401 -19.5)"/>
  </g>
  <path id="Vector-6" data-name="Vector" class="cls-1" d="M474.064,27.474v4.342h8.81v4.343h-8.81V42.9h-5.637V23.191H484.1v4.283H474.064Zm29.423,11.579h-8.428l-1.578,3.828h-5.762l8.809-19.69h5.557l8.809,19.69h-5.873Zm-1.637-4.124-2.562-6.3-2.584,6.3h5.146Zm30.193-2.316a5.618,5.618,0,0,1,2.679,1.824,4.808,4.808,0,0,1,.962,3.039,4.494,4.494,0,0,1-.515,2.277,4.563,4.563,0,0,1-1.592,1.724,11.134,11.134,0,0,1-6.093,1.39h-10.8V23.191H526.9a10.152,10.152,0,0,1,5.829,1.4,4.406,4.406,0,0,1,1.488,1.625,4.337,4.337,0,0,1,.508,2.13,4.531,4.531,0,0,1-.734,2.519,4.873,4.873,0,0,1-1.945,1.767V32.613Zm-9.764-5.4v3.8h3.891c1.894,0,2.856-.658,2.856-1.932s-0.962-1.868-2.856-1.868h-3.891Zm4.743,11.637c1.982,0,2.936-.659,2.936-1.99s-0.976-2.012-2.936-2.012h-4.743v4h4.743Zm24.5-1.216h-3.105v5.233h-5.638V23.191h9.14a11.422,11.422,0,0,1,4.7.9,6.9,6.9,0,0,1,3.083,2.519,6.825,6.825,0,0,1,1.079,3.879,6.6,6.6,0,0,1-1.02,3.713,6.506,6.506,0,0,1-2.892,2.481l4.308,6.2h-6.027Zm3.561-7.157a2.637,2.637,0,0,0-.195-1.187,2.694,2.694,0,0,0-.7-0.984,4.011,4.011,0,0,0-2.628-.724h-3.142v5.79h3.142a4,4,0,0,0,2.628-.724,2.609,2.609,0,0,0,.707-0.974,2.58,2.58,0,0,0,.189-1.183V30.477Zm44.214,5.255-2.122,2.214v4.921h-5.594V23.191h5.594v8.184l7.745-8.184h6.195l-8.155,8.683,8.6,10.971H605Zm30.318,3.321h-8.4l-1.579,3.814h-5.762l8.809-19.676h5.557l8.809,19.69h-5.873Zm-1.645-4.124-2.555-6.3-2.584,6.3h5.139Z" transform="translate(-401 -19.5)"/>
  <path id="Vector-7" data-name="Vector" class="cls-2" d="M578.445,35.832v7.056h-5.638V35.746l-7.62-12.555h5.954l4.741,7.837,4.728-7.837H586.1Z" transform="translate(-401 -19.5)"/>
  <path id="Vector-8" data-name="Vector" class="cls-1" d="M641.929,43.049a1.976,1.976,0,0,1-1.41-.558,1.846,1.846,0,0,1-.565-1.367,1.779,1.779,0,0,1,.131-0.749,1.8,1.8,0,0,1,.434-0.627,2.132,2.132,0,0,1,2.826,0,1.934,1.934,0,0,1,.531,1,1.909,1.909,0,0,1-.121,1.119,1.945,1.945,0,0,1-.731.866,2,2,0,0,1-1.1.319h0Zm8.141-8.287a3.215,3.215,0,0,1,1.284-.948,5.21,5.21,0,0,1,1.836-.3V36.4a6.6,6.6,0,0,0-.735-0.058,2.224,2.224,0,0,0-1.644.571,2.284,2.284,0,0,0-.483.8,2.245,2.245,0,0,0-.119.923v4.226h-3.3V33.655h3.142Zm15.856-1.107v9.226h-3.12V41.9a3.394,3.394,0,0,1-1.218.84,3.828,3.828,0,0,1-1.535.312A4.04,4.04,0,0,1,658.5,42.8a4,4,0,0,1-1.337-.819,4.311,4.311,0,0,1-1.065-3.163V33.655h3.267v4.631a2.456,2.456,0,0,0,.4,1.519,1.462,1.462,0,0,0,.53.365,1.484,1.484,0,0,0,.637.1,1.7,1.7,0,0,0,.693-0.128,1.668,1.668,0,0,0,.577-0.4,2.345,2.345,0,0,0,.477-1.642v-4.45h3.252Z" transform="translate(-401 -19.5)"/>
</svg>
