<svg width="84" height="84" viewBox="0 0 84 84" fill="none" xmlns="http://www.w3.org/2000/svg">
<g clip-path="url(#clip0_1_81)">
<path fill-rule="evenodd" clip-rule="evenodd" d="M33.6507 22.7872C38.8331 22.7872 38.3169 22.732 40.2977 18.7699C40.8646 17.6357 43.3425 12.3772 43.869 11.8515C44.7889 10.9319 46.9916 11.6727 47.9743 12.1905C49.1002 12.7839 50.0625 13.6974 50.6801 14.8203C52.557 18.2347 51.137 19.9801 50.0364 22.7505C52.3117 22.9315 58.7331 21.7856 59.0453 26.7111C59.1466 28.317 58.5868 28.9274 58.0505 29.8949C59.455 32.3675 59.427 33.1124 58.0494 35.5824C59.4437 38.0153 59.4444 38.8256 58.0509 41.2702C59.3367 43.5201 59.7487 45.9349 57.0894 47.6485C55.2843 48.8107 50.88 48.3776 48.4025 48.3776C44.9409 48.3776 43.1422 48.4966 40.2418 47.1235C37.7412 45.9394 37.2843 44.6411 33.6507 44.1891L33.0138 45.0826C32.3063 45.8151 30.5352 45.5342 29.2071 45.5342C23.7332 45.5342 24.943 46.2883 24.943 33.2716C24.943 20.1396 23.7645 21.3661 29.5623 21.3653C30.2234 21.3653 31.8021 21.2882 32.355 21.4239C33.2221 21.6363 33.2417 22.3094 33.6507 22.7872V22.7872ZM17.8632 33.9829C18.4471 46.8389 29.5654 57.5316 43.2238 56.8785C56.1071 56.2621 66.8515 45.1873 66.1391 31.4876C65.4675 18.5722 54.5061 7.95062 40.7838 8.59768C27.8498 9.20732 17.2403 20.2651 17.8632 33.9829V33.9829Z" fill="#A4DCB9"/>
<path fill-rule="evenodd" clip-rule="evenodd" d="M17.8632 33.9829C17.2403 20.2651 27.8498 9.20731 40.7834 8.59767C54.5061 7.95062 65.4675 18.5722 66.1391 31.4876C66.8515 45.1873 56.1071 56.2621 43.2238 56.8785C29.5654 57.5316 18.4471 46.8389 17.8632 33.9829V33.9829ZM51.3029 64.0876C56.8467 60.6505 53.8726 62.7802 57.171 61.5912C57.9447 61.3123 58.4629 60.9135 59.0668 60.6735C59.9267 61.6044 61.0265 63.7043 61.7934 64.8488C63.7625 67.7858 63.2391 66.5114 59.9089 74.1075C59.5544 74.9152 59.2169 75.6575 58.8537 76.4304L58.0267 78.2717C58.0082 78.3069 57.9844 78.3538 57.964 78.387L57.645 78.7778L51.3029 64.0876V64.0876ZM26.2968 78.8674L21.9999 69.4443C20.7602 66.6901 20.5024 67.3999 22.1443 64.955C22.933 63.781 24.0718 61.5961 24.9415 60.6735C25.505 60.8973 26.0122 61.2741 26.7099 61.5424C29.5816 62.6495 27.6911 60.8013 32.6959 64.0792C31.5171 67.2087 29.3836 71.8042 27.9436 75.1945C27.4991 76.2399 26.8411 78.0242 26.2968 78.8674ZM61.1248 58.2542C63.1604 57.1975 65.02 56.5451 66.2026 54.446C66.5866 53.7645 66.8035 53.1908 67.1312 52.5215C67.8399 52.8359 69.6934 55.2949 70.3468 55.9415L79.6785 66.5556C75.7092 66.5012 71.266 65.8828 67.242 65.6281C65.6693 65.5287 65.6969 65.7725 64.9433 64.5441C64.1065 63.1809 61.347 59.1553 61.1248 58.2542V58.2542ZM4.33399 66.5552C4.66281 65.8806 5.3537 65.3242 5.86923 64.676L16.7652 52.5267C17.2464 52.9901 17.4508 53.7993 17.8054 54.4464C18.9207 56.4816 20.9068 57.2621 22.8835 58.2421C22.6666 59.1428 20.8724 61.7019 20.304 62.5844C19.7907 63.3804 19.437 63.9579 18.9986 64.6549C18.2918 65.7778 18.2468 65.5264 16.7667 65.6345C12.7907 65.9252 8.25789 66.5133 4.33399 66.5552V66.5552ZM41.0461 3.04668C43.3111 2.44007 44.5047 4.11175 47.2963 3.89443C51.109 3.59811 50.2617 4.40731 52.7577 5.63792C55.0764 6.78123 56.4971 5.92479 58.114 7.92378C58.899 8.89437 59.003 9.08334 59.9709 9.79654C60.7646 10.3812 61.5904 10.5551 62.4117 11.0816C64.0902 12.1572 64.204 14.0776 65.5673 15.5739C67.0307 17.1802 67.8558 16.4927 68.49 20.1101C68.9545 22.7603 70.5899 23.4342 70.9134 25.3247C71.1122 26.4881 70.7339 27.5271 70.8597 28.786C70.9863 30.0552 71.4206 30.5975 71.7078 31.6407C72.3345 33.916 70.6314 35.2653 70.8472 38.0311C71.1455 41.8598 70.323 40.9954 69.1022 43.4899C67.9748 45.7931 68.7678 47.2592 66.8187 48.8481C65.8575 49.6316 65.6357 49.7208 64.9482 50.7095C64.4217 51.4666 64.1545 52.3729 63.6601 53.1447C62.5844 54.8221 60.6935 54.9162 59.1693 56.3017C57.3479 57.9579 58.2115 58.6072 54.6229 59.2263C51.9866 59.6806 51.3056 61.3255 49.4188 61.6494C48.2585 61.8482 47.2176 61.4665 45.9678 61.5889C44.6566 61.7174 44.1377 62.16 43.093 62.4495C40.8533 63.0701 39.4462 61.3742 36.7136 61.5844C32.8634 61.8799 33.7519 61.0534 31.2537 59.8364C28.9614 58.7203 27.4696 59.4951 25.8932 57.5543C23.6905 54.8421 23.6848 55.7254 21.5992 54.3938C19.9283 53.3269 19.7968 51.3891 18.4437 49.9007C16.7735 48.0643 16.1537 48.9717 15.5191 45.3676C15.0512 42.7124 13.4245 42.0469 13.0957 40.1518C12.8942 38.9896 13.2767 37.9423 13.1422 36.6701C13.0088 35.4062 12.59 34.8779 12.3024 33.8343C11.6738 31.5545 13.3773 30.2135 13.1603 27.4484C12.8606 23.6304 13.6815 24.4815 14.9057 21.9866C16.049 19.6569 15.1865 18.2559 17.1919 16.6314C18.138 15.8653 18.3882 15.7376 19.059 14.7662C19.5817 14.0103 19.858 13.0964 20.3486 12.3326C21.419 10.6662 23.3484 10.5283 24.8402 9.17632C26.6869 7.50199 25.7586 6.89235 29.3752 6.25248C32.0334 5.78306 32.708 4.14803 34.5952 3.82489C35.7324 3.63024 36.8009 4.00744 38.0387 3.88649C39.2251 3.77008 39.9953 3.32788 41.0461 3.04668V3.04668ZM36.494 0.92372C32.7277 0.92372 33.3226 1.01859 30.3825 2.81008C28.7074 3.83131 28.2497 3.00019 25.7095 4.35818C22.7943 5.9161 24.8976 6.16857 20.6139 8.32668C17.5483 9.871 17.718 11.9728 16.4583 13.4135C15.4987 14.5107 14.5837 14.5625 13.5027 16.6791C12.2982 19.0375 13.0915 19.5326 12.0068 21.2258C11.5174 21.99 11.2823 22.1522 10.837 23.0774C9.68844 25.4608 10.3994 27.4084 10.2735 28.3775C9.87666 31.4343 8.39509 31.2299 9.95074 35.8209C10.854 38.4866 9.32485 39.4405 11.0135 42.7567C11.492 43.6963 12.0472 44.0776 12.4354 45.0667C13.4117 47.5521 11.8757 46.3952 14.6324 50.5123L11.7623 53.6852C11.342 54.2117 11.2517 54.333 10.7641 54.8198L7.83118 58.1076C6.04611 59.9452 2.96769 63.7289 1.08246 65.7555C0.31635 66.5787 -1.36252 67.9642 -0.340532 69.2179C0.442586 70.1775 3.91257 69.6113 4.95988 69.4552C6.44485 69.2341 7.93096 69.3264 9.42955 69.126L18.3651 68.4635C19.0382 69.7357 19.5224 71.1477 20.2012 72.4932C20.8872 73.8539 21.3528 75.1597 22.0392 76.5203C22.721 77.8715 23.2244 79.2367 23.8768 80.5478C24.4018 81.603 24.906 83.9271 26.3633 83.9271C27.8207 83.9271 28.385 81.5203 29.2021 79.6562L35.6054 64.5536C37.0144 64.5536 37.4411 64.2837 38.6789 64.6787C40.7649 65.3427 39.6427 65.4421 42.5371 65.4421C43.824 65.4421 44.3482 65.0067 45.3555 64.7048C46.7403 64.2894 46.7868 64.5536 48.4025 64.5536L54.7521 79.5326C55.1342 80.4246 55.4302 81.1177 55.8161 82.0233C56.832 84.4067 58.1987 84.6659 59.1889 82.6269C61.0031 78.8886 62.8634 74.3169 64.693 70.5354C65.0381 69.8234 65.3095 69.0939 65.6432 68.4635L78.8984 69.4273C80.2492 69.6287 81.9863 69.7077 83.4168 69.7077C84.1134 69.7077 84.661 69.0467 84.661 68.2859C84.661 67.4816 82.7822 65.4747 82.1303 64.7735C81.7055 64.3174 81.4809 64.1556 81.106 63.6646L71.3832 52.7705C70.9576 52.2622 70.8881 52.1102 70.3963 51.6238C69.9961 51.2281 69.7194 50.7643 69.3759 50.5123C70.0649 49.4827 70.1371 49.6698 70.7992 48.2037C71.2554 47.195 71.1708 46.2036 71.5238 45.1956C71.867 44.2156 72.4819 43.7397 72.9354 42.875C74.7224 39.4696 73.1414 38.5247 74.0576 35.8209C75.6132 31.2299 74.1317 31.4343 73.7348 28.3775C73.6165 27.4673 74.287 25.457 73.2299 23.1969C72.7967 22.2705 72.5749 22.0838 72.0714 21.3332C70.8023 19.4392 71.7192 17.3779 69.2478 14.9155C68.6578 14.3274 68.1906 14.1026 67.6358 13.5054C66.3628 12.1353 66.4456 9.89443 63.5127 8.38602C60.5076 6.84019 62.0481 7.89997 60.0915 5.76454C59.5374 5.15981 59.0653 4.7675 58.2988 4.35818C55.8267 3.03685 55.3168 3.78898 53.7366 2.87698C50.7655 1.16183 51.6495 0.92372 47.5143 0.92372C46.7966 0.92372 46.6405 1.21512 45.0852 0.686366C42.6028 -0.157225 41.6213 -0.281571 39.0542 0.640255C38.5501 0.821295 38.3565 0.876098 37.7639 0.960759C36.8171 1.09644 37.3043 0.92372 36.494 0.92372V0.92372ZM27.7852 24.2071H30.6289V42.692H27.7852V24.2071V24.2071ZM47.2857 21.5615C46.9009 23.4002 44.4208 25.6535 49.1127 25.629C50.4163 25.6218 51.7206 25.6309 53.0241 25.6263C54.3636 25.6222 55.5292 25.3946 56.0772 26.5232C56.4862 27.4518 55.8781 28.1711 55.093 28.4073C54.0189 28.7308 53.5869 28.7199 53.3904 29.8893C53.7407 31.9952 55.1864 30.6161 56.0742 32.2148C56.485 33.1419 55.8716 33.86 55.0927 34.0944C54.017 34.4171 53.5835 34.4054 53.3889 35.5778C53.7464 37.6853 55.186 36.3024 56.0742 37.9026C56.485 38.8297 55.8716 39.5478 55.0927 39.7818C54.017 40.1046 53.5835 40.0932 53.3889 41.2656C53.7415 43.3444 55.1751 42.0181 56.0765 43.5859C57.154 46.0864 52.6632 45.5358 51.0686 45.5358C49.0602 45.5358 45.7776 45.7232 43.9446 45.3842C39.764 44.6113 39.0716 41.667 33.4726 41.2997V25.6275L35.6723 25.6399C39.5913 25.5303 40.704 24.2872 42.1115 21.4685C42.8243 20.0402 44.9771 15.2973 45.7429 14.3826L46.2535 14.5527C49.9861 15.8638 48.5632 20.38 47.2857 21.5615V21.5615ZM33.6503 22.7872C33.2417 22.3094 33.222 21.6363 32.355 21.4239C31.8021 21.2882 30.2234 21.3653 29.5623 21.3653C23.7645 21.366 24.943 20.1396 24.943 33.2716C24.943 46.2883 23.7332 45.5342 29.2071 45.5342C30.5352 45.5342 32.3063 45.8151 33.0138 45.0826L33.6503 44.1891C37.2843 44.6411 37.7412 45.9394 40.2418 47.1235C43.1422 48.4966 44.9409 48.3776 48.4025 48.3776C50.88 48.3776 55.2843 48.8111 57.0894 47.6485C59.7487 45.9349 59.3367 43.5201 58.0509 41.2702C59.4444 38.8256 59.4437 38.0152 58.0494 35.5824C59.4274 33.1124 59.455 32.3675 58.0505 29.8949C58.5868 28.9274 59.1466 28.317 59.0453 26.7111C58.7331 21.7856 52.3117 22.9315 50.0364 22.7505C51.137 19.9801 52.557 18.2343 50.6801 14.8207C50.0625 13.6974 49.1002 12.7839 47.9743 12.1905C46.9916 11.6727 44.7889 10.9319 43.8686 11.8515C43.3425 12.3772 40.8646 17.6357 40.2977 18.7699C38.3169 22.732 38.8331 22.7872 33.6503 22.7872V22.7872ZM40.3287 5.78079C26.0005 6.77821 14.0629 18.9014 15.0452 34.4368C15.95 48.7521 28.2573 60.6678 43.7201 59.6939C58.0324 58.7921 69.9269 46.4837 68.9579 31.0046C68.0693 16.8136 55.6947 4.71194 40.3287 5.78079V5.78079Z" fill="#438777"/>
<path fill-rule="evenodd" clip-rule="evenodd" d="M35.6723 25.6399C37.5296 31.7877 43.691 38.2575 49.2011 41.3643C50.0871 41.8636 55.2646 44.8452 56.0765 43.5859C55.1751 42.0181 53.7415 43.3444 53.3889 41.2656L51.9659 41.2619C52.2856 37.694 55.3572 38.9594 56.0742 37.9026C55.186 36.3024 53.7464 37.6853 53.3889 35.5778L51.9659 35.574C52.2856 32.0062 55.3572 33.2716 56.0742 32.2148C55.1864 30.6161 53.7407 31.9952 53.3904 29.8893L51.9666 29.8855C52.2864 26.3168 55.3663 27.5875 56.0772 26.5232C55.5292 25.3946 54.3636 25.6222 53.0241 25.6263C51.7206 25.6309 50.4163 25.6218 49.1127 25.629C44.4208 25.6535 46.9009 23.4002 47.2857 21.5614C47.7324 17.7906 47.4837 17.6024 46.2535 14.5527L45.7429 14.3826C44.9771 15.2969 42.8243 20.0402 42.1115 21.4685C40.704 24.2872 39.5913 25.5303 35.6723 25.6399V25.6399Z" fill="#FDFEFD"/>
<path fill-rule="evenodd" clip-rule="evenodd" d="M27.7848 42.692H30.6289V24.2071H27.7848V42.692Z" fill="#72B69A"/>
<path fill-rule="evenodd" clip-rule="evenodd" d="M47.2857 21.5615C48.5631 20.38 49.9861 15.8638 46.2535 14.5527C47.4837 17.6024 47.7324 17.7906 47.2857 21.5615ZM53.3904 29.8893C53.5869 28.7199 54.0189 28.7308 55.093 28.4073C55.878 28.1711 56.4862 27.4519 56.0772 26.5232C55.3663 27.5875 52.2864 26.3169 51.9666 29.8855L53.3904 29.8893ZM4.33398 66.5552C8.25789 66.5133 12.7907 65.9252 16.7667 65.6345C18.2468 65.5264 18.2918 65.7778 18.9986 64.6549C19.437 63.9579 19.7907 63.3804 20.304 62.5844C20.8724 61.7019 22.6666 59.1428 22.8835 58.2422C20.9068 57.2621 18.9207 56.4816 17.8054 54.4464C17.4508 53.7993 17.2464 52.9901 16.7652 52.5267L5.86923 64.676C5.3537 65.3242 4.6628 65.8806 4.33398 66.5552V66.5552ZM26.2968 78.8674C26.8411 78.0242 27.4991 76.2399 27.9436 75.1945C29.3836 71.8042 31.5171 67.2087 32.6959 64.0793C27.6911 60.8013 29.5816 62.6495 26.7099 61.5424C26.0122 61.2741 25.505 60.8973 24.9415 60.6735C24.0718 61.5961 22.933 63.781 22.1443 64.955C20.5024 67.3999 20.7602 66.6902 21.9999 69.4443L26.2968 78.8674V78.8674ZM57.645 78.7778L57.964 78.387C57.9844 78.3538 58.0082 78.3069 58.0267 78.2718L58.8537 76.4304C59.2169 75.6575 59.5544 74.9152 59.9089 74.1075C63.2391 66.5114 63.7625 67.7858 61.7934 64.8488C61.0265 63.7043 59.9267 61.6044 59.0668 60.6735C58.4629 60.9135 57.9447 61.3123 57.171 61.5912C53.8726 62.7802 56.8467 60.6505 51.3029 64.0876L57.645 78.7778V78.7778ZM61.1248 58.2542C61.347 59.1553 64.1065 63.1809 64.9432 64.5441C65.6969 65.7725 65.6693 65.5287 67.242 65.6281C71.266 65.8828 75.7092 66.5012 79.6785 66.5556L70.3468 55.9416C69.6934 55.2949 67.8399 52.8359 67.1312 52.5215C66.8035 53.1908 66.5866 53.7645 66.2026 54.446C65.02 56.5451 63.1604 57.1975 61.1248 58.2542V58.2542ZM40.3287 5.7808C55.6947 4.71195 68.0693 16.8136 68.9579 31.0046C69.9269 46.4837 58.0324 58.7921 43.7201 59.6939C28.2573 60.6679 15.95 48.7521 15.0452 34.4368C14.0629 18.9014 26.0005 6.77821 40.3287 5.7808ZM41.046 3.04669C39.9953 3.32788 39.2251 3.77009 38.0387 3.8865C36.8009 4.00744 35.7324 3.63024 34.5952 3.82489C32.708 4.14804 32.0334 5.78306 29.3752 6.25248C25.7586 6.89235 26.6869 7.50199 24.8402 9.17632C23.3484 10.5283 21.419 10.6662 20.3486 12.3326C19.858 13.0964 19.5817 14.0103 19.059 14.7662C18.3882 15.7376 18.138 15.8653 17.1919 16.6314C15.1865 18.2559 16.049 19.657 14.9057 21.9867C13.6815 24.4815 12.8606 23.6304 13.1603 27.4484C13.3773 30.2136 11.6738 31.5545 12.3024 33.8343C12.59 34.8779 13.0088 35.4062 13.1422 36.6701C13.2767 37.9423 12.8942 38.9896 13.0957 40.1518C13.4245 42.0469 15.0512 42.7124 15.5191 45.3676C16.1537 48.9717 16.7735 48.0643 18.4437 49.9007C19.7968 51.3891 19.9283 53.3269 21.5992 54.3938C23.6848 55.7254 23.6905 54.8421 25.8932 57.5543C27.4696 59.4951 28.9614 58.7203 31.2537 59.8364C33.7519 61.0534 32.8634 61.8799 36.7136 61.5844C39.4462 61.3742 40.8533 63.0701 43.093 62.4495C44.1377 62.16 44.6566 61.7174 45.9677 61.5889C47.2176 61.4665 48.2585 61.8482 49.4188 61.6494C51.3056 61.3255 51.9866 59.6806 54.6229 59.2263C58.2115 58.6073 57.3479 57.9579 59.1693 56.3017C60.6935 54.9162 62.5844 54.8221 63.6601 53.1447C64.1545 52.3729 64.4217 51.4666 64.9482 50.7095C65.6357 49.7208 65.8575 49.6316 66.8186 48.8481C68.7677 47.2592 67.9748 45.7931 69.1022 43.4899C70.323 40.9954 71.1454 41.8598 70.8472 38.0311C70.6314 35.2653 72.3345 33.916 71.7078 31.6407C71.4206 30.5976 70.9863 30.0552 70.8597 28.786C70.7339 27.5271 71.1122 26.4881 70.9134 25.3247C70.5899 23.4342 68.9545 22.7603 68.49 20.1101C67.8557 16.4927 67.0307 17.1802 65.5672 15.5739C64.204 14.0776 64.0902 12.1572 62.4117 11.0816C61.5904 10.5551 60.7646 10.3812 59.9709 9.79654C59.003 9.08335 58.899 8.89437 58.114 7.92379C56.4971 5.9248 55.0764 6.78124 52.7577 5.63793C50.2617 4.40732 51.109 3.59812 47.2963 3.89443C44.5047 4.11176 43.3111 2.44007 41.046 3.04669V3.04669ZM56.0765 43.5859C55.2646 44.8452 50.0871 41.8636 49.2011 41.3643C43.691 38.2575 37.5296 31.7877 35.6723 25.6399L33.4726 25.6275V41.2997C39.0716 41.667 39.764 44.6113 43.9446 45.3842C45.7776 45.7232 49.0602 45.5358 51.0686 45.5358C52.6632 45.5358 57.154 46.0864 56.0765 43.5859V43.5859ZM53.3888 41.2656C53.5835 40.0932 54.017 40.1046 55.0927 39.7818C55.8716 39.5479 56.485 38.8297 56.0742 37.9026C55.3572 38.9594 52.2856 37.694 51.9659 41.2619L53.3888 41.2656V41.2656ZM53.3888 35.5778C53.5835 34.4054 54.017 34.4171 55.0927 34.0944C55.8716 33.86 56.485 33.1419 56.0742 32.2148C55.3572 33.2716 52.2856 32.0062 51.9659 35.5741L53.3888 35.5778Z" fill="#CEF1A8"/>
</g>
<defs>
<clipPath id="clip0_1_81">
<rect width="83.9992" height="83.9992" fill="white"/>
</clipPath>
</defs>
</svg>
