<svg width="84" height="80" viewBox="0 0 84 80" fill="none" xmlns="http://www.w3.org/2000/svg">
<path fill-rule="evenodd" clip-rule="evenodd" d="M38.9427 66.4181L45.3808 66.4299L45.3906 59.7681L45.4167 57.932L38.8641 57.9301L38.9457 58.635C38.9295 61.2145 39.0629 63.856 38.9427 66.4181V66.4181ZM38.9427 45.9713L45.3808 45.9924L45.3906 33.9044L45.4167 30.5723L38.8641 30.5689L38.9457 31.8479C38.9295 36.5289 39.0629 41.3217 38.9427 45.9713Z" fill="#A4DCB9"/>
<path fill-rule="evenodd" clip-rule="evenodd" d="M28.8695 30.5943L51.4375 30.5901C51.3003 28.5083 51.6109 20.1133 51.3728 19.3282C47.5922 19.3301 43.9366 19.3502 40.1635 19.3536C39.5206 19.3539 39.5607 19.2746 38.8104 19.5565L28.8933 23.1176C28.7837 23.4929 28.7758 30.0432 28.8695 30.5943V30.5943ZM19.5802 62.4443L19.5734 61.0353L19.5825 59.6294L18.5268 59.6282L17.4758 59.6392L16.4247 59.6275L15.6646 59.6936L19.5802 62.4443ZM68.3021 59.635L67.573 59.6282L66.5219 59.6392L65.4712 59.6294H64.4152L64.4167 60.6846L64.4489 62.4795L68.3021 59.635Z" fill="#72B69A"/>
<path fill-rule="evenodd" clip-rule="evenodd" d="M23.8745 16.579C20.7855 17.3795 17.5347 17.7855 14.0508 17.6728C13.7915 19.0266 13.9695 30.8774 14.1143 32.8287C14.5773 39.0752 15.4515 40.3761 16.9002 45.6202L26.7054 45.616C25.0231 42.7632 23.1802 19.7512 23.8745 16.579V16.579ZM50.9424 67.3498C48.8387 66.5912 47.0498 65.8142 45.383 64.9475L45.3808 66.4299L38.9427 66.4181C39.0282 64.5941 38.9854 62.7301 38.9594 60.8766C38.4196 60.4835 37.8667 60.0716 37.2933 59.6388L25.358 59.6411C25.8554 60.7239 32.7942 67.0954 34.6095 68.9474C35.4425 69.7974 36.7687 70.7128 37.804 71.8894C39.0905 73.3521 40.6654 74.5849 41.9989 75.8401C42.7495 75.1628 43.457 74.461 44.2458 73.7882C45.0625 73.0913 45.6952 72.3599 46.4734 71.6433L50.9424 67.3498V67.3498Z" fill="#CEF1A8"/>
<path fill-rule="evenodd" clip-rule="evenodd" d="M79.7665 63.7698C79.3239 63.2418 77.0453 60.3539 77.0449 59.6339C77.0449 58.8999 79.3232 56.0445 79.7726 55.4772L74.2337 55.4345C74.2042 59.3686 74.5066 58.7975 71.8885 60.6249L67.528 63.8337L79.7665 63.7698V63.7698ZM12.5688 56.8291L71.4289 56.8336V48.4261L12.5688 48.4212L12.5726 52.9778L12.5688 56.8291V56.8291ZM4.23154 55.4983C4.66732 56.001 6.95091 58.9188 6.95015 59.6335C6.94977 60.3664 4.67299 63.243 4.22662 63.8333L16.4897 63.8311C15.8755 63.2441 14.9847 62.7021 14.2586 62.1522C9.47261 58.5254 9.76892 60.2114 9.77081 55.4235L4.23154 55.4983V55.4983Z" fill="#A4DCB9"/>
<path fill-rule="evenodd" clip-rule="evenodd" d="M64.4492 62.4791L64.4167 60.685L64.4156 59.6293H65.4709L66.5219 59.6396L67.573 59.6282L68.3021 59.635L64.4492 62.4791ZM34.978 51.2248H49.0065C49.7722 51.2248 50.4004 51.8522 50.4004 52.6191V52.6195C50.4004 53.3863 49.7722 54.0137 49.0065 54.0137H34.978C34.2123 54.0137 33.5841 53.3863 33.5841 52.6195V52.6191C33.5841 51.8522 34.2123 51.2248 34.978 51.2248ZM55.9786 51.2248H60.2128C60.9785 51.2248 61.6067 51.853 61.6067 52.6191V52.6195C61.6067 53.3856 60.9777 54.0137 60.2128 54.0137H55.9786C55.2136 54.0137 54.5847 53.3863 54.5847 52.6195V52.6191C54.5847 51.8522 55.2128 51.2248 55.9786 51.2248ZM22.351 51.2188C23.1228 51.2188 23.749 51.845 23.749 52.6176C23.749 53.3893 23.1228 54.0156 22.351 54.0156C21.5784 54.0156 20.9522 53.3893 20.9522 52.6176C20.9522 51.845 21.5784 51.2188 22.351 51.2188ZM27.9632 51.2188C28.7354 51.2188 29.3616 51.845 29.3616 52.6172C29.3616 53.3893 28.7354 54.0156 27.9632 54.0156C27.191 54.0156 26.5648 53.3893 26.5648 52.6172C26.5648 51.845 27.191 51.2188 27.9632 51.2188ZM39.6087 65.6932C39.6325 63.5499 39.6465 61.5512 39.6533 59.6388L44.7171 59.638L44.7148 65.742L39.6087 65.6932V65.6932ZM37.3009 56.8314L12.5688 56.8287L12.5726 52.9778L12.5688 48.4212L37.2903 48.423H47.0211V48.4242L71.4289 48.4261V56.8336L47.0317 56.8317L37.3009 56.8314ZM37.302 56.8317L37.2994 56.8306L37.302 56.8317ZM39.6257 45.6254V45.6168L44.722 45.6171V45.6254H39.6257ZM39.6253 45.568C39.6147 42.8626 39.6068 40.0238 39.6117 36.8705L39.6971 32.1798L44.7507 32.2433C44.6362 34.1546 44.7288 36.0315 44.7246 38.3196L44.722 45.5722L39.6253 45.568V45.568ZM29.5351 29.9139L29.5589 23.1029L38.8104 20.2085C39.5603 19.9265 39.5202 20.0063 40.1639 20.0055L50.7065 19.9798L50.7711 29.9098L29.5351 29.9139V29.9139ZM37.2397 32.3056L37.2752 39.5321L37.2419 45.5661H37.2223L30.2627 45.6254H37.2416V45.6168L26.7054 45.616L16.9001 45.6202C15.4515 40.3761 14.5772 39.0751 14.1143 32.8287C13.9695 30.8773 13.7915 19.0266 14.0508 17.6728C17.5347 17.7854 20.7855 17.3795 23.8745 16.579C30.1644 14.3283 33.0709 13.3226 38.3433 8.50444C40.0108 6.98053 40.8389 5.56736 41.9989 4.50003C42.8149 5.24233 43.6218 6.37921 44.3516 7.1884C50.4193 13.9156 60.2275 17.9431 69.9469 17.6728C70.2489 19.2595 70.0195 23.4355 70.0256 25.3018C70.0335 27.8205 70.0652 30.3414 69.8842 32.8336C69.4095 39.3817 68.4533 40.356 67.0832 45.6186L57.2791 45.6179L47.0113 45.6171V45.6254H54.1697L47.0113 45.5756V39.4607L47.0479 32.3053C47.8692 32.1522 49.7076 32.3242 50.5776 32.2686C52.9856 32.1159 53.1095 32.5638 53.1095 30.2371C53.1095 29.6316 53.1099 29.1308 53.1095 28.5254V21.5351C53.1099 16.8319 54.1568 17.6479 46.4409 17.6479C44.29 17.6482 42.2434 17.652 40.0928 17.6479C39.292 17.6467 39.3063 17.635 38.5236 17.8977L30.6066 20.7267C30.0412 20.9145 29.6009 21.1126 29.0373 21.2985C26.646 22.0869 27.2186 21.5752 27.2186 27.0275V30.6649C27.2175 32.4073 27.3093 32.2697 29.7505 32.2697L37.2397 32.3056V32.3056ZM37.2933 59.6392C37.2858 62.8042 37.2756 65.5012 37.2752 66.3505C37.2748 68.5407 37.5938 68.0978 42.1614 68.0981L45.5849 68.0985C47.3726 68.1087 47.0472 67.3774 47.0472 65.0666L47.037 59.6377L58.7372 59.6358L56.0591 62.4738C55.7008 63.0219 51.329 67.1476 50.9423 67.3498L46.4734 71.6433C45.6952 72.3599 45.0625 73.0913 44.2458 73.7882C43.457 74.461 42.7495 75.1628 41.9989 75.8401C40.6654 74.5849 39.0905 73.3521 37.804 71.8894C36.7687 70.7128 35.4425 69.7974 34.6095 68.9474C32.7942 67.0954 25.8554 60.7239 25.358 59.6411L37.2933 59.6392V59.6392ZM15.665 59.6936L16.4247 59.6275L17.4758 59.6396L18.5269 59.6282L19.5825 59.6293L19.5738 61.0353L19.5806 62.4443L15.665 59.6936V59.6936ZM79.7662 63.7698L67.5281 63.8337L71.8885 60.6249C74.5066 58.7971 74.2042 59.3686 74.2337 55.4345L79.7722 55.4772C79.3236 56.0445 77.0453 58.8995 77.0453 59.6339C77.0453 60.3539 79.324 63.2418 79.7662 63.7698V63.7698ZM4.23155 55.4983L9.77082 55.4235C9.76931 60.2114 9.47262 58.525 14.2586 62.1522C14.9843 62.7025 15.8755 63.2445 16.4897 63.8311L4.22701 63.8333C4.673 63.243 6.94978 60.3664 6.95054 59.6335C6.95092 58.9188 4.66733 56.001 4.23155 55.4983V55.4983ZM13.9438 45.5922C9.09315 45.8979 9.77045 44.5301 9.77045 52.6293C8.07684 52.6293 6.38248 52.6327 4.68887 52.6293C3.2243 52.6263 0.803515 52.2358 0.159862 53.3644C-0.475855 54.479 1.04578 55.9296 1.56622 56.625C2.33763 57.6561 3.16799 58.6531 3.75041 59.6339C3.13775 60.6683 -0.210154 64.4547 0.00981451 65.5277C0.308397 66.9824 2.36181 66.6453 3.81277 66.6415L18.5269 66.6389C23.2278 66.6287 22.2973 66.7254 22.388 60.6419L27.0452 65.4816C27.9681 66.4707 28.5033 66.9896 29.4387 67.8177C31.6649 69.7883 34.7648 73.0263 36.7978 74.8227C43.5224 80.7648 40.5146 80.6919 47.1144 74.9119L53.1825 69.0687C54.3103 67.9046 55.3115 67.3264 56.8751 65.5791C57.4768 64.9067 58.6027 63.8038 59.2543 63.2241C60.2196 62.365 60.7011 61.4575 61.6044 60.646C61.6229 61.665 61.4887 64.7899 61.6766 65.5364C62.0413 66.9843 63.9753 66.6351 65.4709 66.6389L80.1849 66.6415C81.6385 66.6449 83.6829 66.9794 83.9852 65.5265C84.2294 64.3538 81.2935 61.3906 80.2465 59.6339C81.623 57.3136 84.6145 54.7572 83.8405 53.3625C83.2248 52.2536 80.9102 52.6259 79.4842 52.6293C77.7324 52.6331 75.9794 52.6293 74.2276 52.6293C74.2843 44.5211 74.784 45.8772 70.0539 45.5922C73.4797 34.124 72.7903 30.5096 72.8273 18.9956C72.8455 13.3328 72.4161 15.1205 67.4052 14.8741C59.3057 14.4753 52.2383 11.1097 47.0581 5.87842L44.7284 3.3057C41.893 -0.021422 42.0737 -0.1178 39.5063 3.01845C39.1007 3.51357 38.7556 3.97656 38.4087 4.37644C38.0198 4.82507 37.5859 5.21965 37.2057 5.61839C35.6663 7.23111 33.9337 8.69228 31.8161 10.0423C27.8407 12.5769 22.9315 14.5464 17.1118 14.902C11.2218 15.2622 11.1742 13.4503 11.1723 18.8207C11.1677 31.191 10.4878 33.8231 13.9438 45.5922V45.5922Z" fill="#438777"/>
</svg>
