<svg width="84" height="84" viewBox="0 0 84 84" fill="none" xmlns="http://www.w3.org/2000/svg">
<path fill-rule="evenodd" clip-rule="evenodd" d="M65.8515 6.26458L77.7264 18.203C78.1342 17.5264 78.2476 16.2395 78.4267 15.3479C78.9487 12.7506 79.3432 13.8879 74.7394 9.28253C70.1488 4.69116 71.2834 5.06269 68.6941 5.58313C67.7794 5.76681 66.5163 5.86319 65.8515 6.26458ZM1.45966 73.0639V82.5623H10.9565C11.1568 81.1457 14.6997 77.9358 15.2871 76.6125C14.5731 75.5131 13.626 74.7039 13.2283 72.9033C12.2147 73.426 9.59358 77.2728 8.57273 74.7364C7.95024 73.1902 10.3948 72.0953 11.7211 70.2909C10.6779 69.4783 10.0377 69.5743 8.6041 67.7469C7.23855 68.6324 2.85921 72.8153 1.45966 73.0639V73.0639ZM24.1761 43.7136L29.2339 48.8307L33.0803 44.9412L27.4008 39.2032C26.3615 40.681 25.1781 42.1561 24.1761 43.7136V43.7136ZM35.2649 54.7597L40.2758 59.8787C41.862 58.8484 43.347 57.6646 44.8021 56.6359L39.1117 50.9197L35.2649 54.7597V54.7597ZM35.1942 35.1976L48.8614 48.7956C49.4959 48.5223 50.5349 47.3764 50.9314 46.8578L37.1588 33.1276C36.706 33.456 35.5079 34.5857 35.1942 35.1976V35.1976ZM39.1608 31.0696L52.9448 44.874L54.8357 43.011L41.0566 29.139L39.1608 31.0696ZM29.2449 29.2498C30.5465 30.2026 31.8312 32.0803 33.1313 32.9832C33.9991 32.315 42.1572 24.1557 42.3485 23.6784C38.3278 23.4357 34.5986 24.4929 31.6373 26.8188C30.9097 27.3899 29.6848 28.4587 29.2449 29.2498ZM51.035 50.8532L54.7963 54.7465C56.2541 53.9762 58.1454 51.2122 58.9213 49.5511C60.0574 47.1198 60.5242 44.6793 60.3443 41.6704L51.035 50.8532V50.8532Z" fill="#A4DCB9"/>
<path fill-rule="evenodd" clip-rule="evenodd" d="M74.0213 4.51428C74.4903 5.44102 75.8846 6.54048 76.6828 7.33909C77.472 8.12788 78.59 9.55012 79.5345 10.0014L80.8645 3.20013L74.0213 4.51428V4.51428ZM26.9465 50.6143C26.3724 51.3215 25.5798 51.9296 25.2465 52.8132L31.2193 58.7656C32.1162 58.4349 32.6702 57.6537 33.405 57.0784C30.9434 54.4978 30.635 55.1146 37.0798 48.8908L35.1334 46.9327C33.8778 48.2094 32.6495 49.4022 31.3667 50.6963C29.1232 52.9603 29.0725 52.6757 26.9465 50.6143ZM43.138 27.0811L46.0509 30.0662C47.6413 28.752 49.4842 26.6744 50.9892 25.1702C52.6662 23.4932 54.2283 21.9572 55.8894 20.2707C57.2338 18.9052 65.314 11.0245 65.7426 10.2894C65.4614 9.69563 63.4828 7.75749 62.883 7.39352L43.138 27.0811V27.0811ZM53.9815 37.914L56.8936 40.9149L76.6602 21.1703C76.1926 20.4386 75.8453 20.208 75.3415 19.7053C74.8063 19.1713 74.3974 18.5942 73.7325 18.2793L53.9815 37.914V37.914Z" fill="#72B69A"/>
<path fill-rule="evenodd" clip-rule="evenodd" d="M56.7579 78.7125C56.7579 80.1407 57.0796 80.4624 58.5078 80.4624C58.8631 80.4624 61.6577 78.0072 61.6577 76.9625C61.6577 76.1159 61.1044 75.5626 60.2578 75.5626C59.2131 75.5626 56.7579 78.3572 56.7579 78.7125V78.7125ZM12.7385 58.063C12.9902 56.88 12.6493 56.2156 13.9268 54.4309C14.5757 53.5242 15.5758 52.8023 16.7119 52.4908C20.1082 51.5592 21.7281 53.3949 23.2902 54.957L30.378 62.044C31.2193 62.982 31.5337 63.8638 31.8161 65.4127C31.793 67.494 31.0133 69.2118 29.6549 69.9806C28.2811 70.7577 25.7911 70.9111 24.6232 69.7878C23.6704 69.1336 22.8057 68.2227 22.5248 66.9218C21.7432 63.301 24.2691 62.5565 24.2014 61.2268C24.1187 59.5948 21.7425 58.8639 20.2881 62.2628L19.4842 64.6432C19.4842 65.5669 19.2801 66.8523 19.3962 67.412C19.5511 68.16 20.0134 69.1506 20.3543 69.6178C21.3604 70.9954 22.1393 71.5706 23.509 72.5507L26.1222 73.3848C23.6001 77.5151 18.3507 76.8816 16.4587 73.513C15.3853 71.602 15.8906 71.2313 15.7867 69.2667C15.6918 67.477 13.9597 68.1918 12.5019 67.4914C9.66349 66.1281 10.591 63.5456 9.76668 62.7043C9.40271 62.3327 6.71924 61.1992 7.82551 58.6624C8.04888 58.1495 8.14942 58.0774 8.45971 57.8483C8.78438 57.4726 9.20277 57.2428 9.85965 57.188L9.86343 58.763V58.938C9.88686 58.9758 9.90727 58.9965 9.91408 59.0612L10.0055 59.3178C10.0173 59.3556 10.0328 59.41 10.0448 59.4527C10.1344 59.7623 10.1272 59.8046 10.2319 60.1402C10.3638 60.5616 10.5124 60.8213 10.5596 61.3878L10.7346 61.7378C11.1111 61.9998 10.9648 61.7635 11.0846 62.2628L11.2592 62.4378C11.8401 63.3317 12.2793 64.1163 13.8845 64.1216C14.2001 63.9341 14.1868 63.9591 14.4503 63.6627C14.9919 62.1846 14.6374 62.1324 13.8161 61.1063C13.1807 60.3122 12.8364 59.3703 12.7385 58.063V58.063ZM39.1117 50.9197L44.8021 56.6358C43.347 57.6646 41.862 58.8484 40.2758 59.8787L35.2649 54.7597L39.1117 50.9197ZM26.9465 50.6143C29.0725 52.6757 29.1231 52.9603 31.3667 50.6963C32.6494 49.4022 33.8778 48.2094 35.1334 46.9327L37.0798 48.8908C30.635 55.1146 30.9434 54.4978 33.405 57.0784C32.6702 57.6537 32.1162 58.4349 31.2193 58.7656L25.2465 52.8132C25.5798 51.9296 26.3724 51.3215 26.9465 50.6143V50.6143ZM60.3443 41.6704C60.5242 44.6793 60.0574 47.1198 58.9213 49.5511C58.1454 51.2122 56.2541 53.9762 54.7963 54.7465L51.035 50.8532L60.3443 41.6704V41.6704ZM24.1761 43.7136C25.1781 42.1561 26.3614 40.6809 27.4008 39.2032L33.0803 44.9412L29.2339 48.8307L24.1761 43.7136ZM32.8169 36.6497L47.3915 51.2549L46.3854 54.1244L29.8681 37.6127L32.8169 36.6497V36.6497ZM35.1942 35.1976C35.5079 34.5857 36.706 33.456 37.1588 33.1276L50.9314 46.8578C50.5349 47.3764 49.4959 48.5223 48.8614 48.7956L35.1942 35.1976V35.1976ZM69.803 36.0136C70.9175 36.7423 71.4626 36.257 72.5076 36.0136L73.2076 41.4387C69.0667 41.4387 70.5003 43.7779 71.1632 44.1827C71.7351 44.5319 72.3768 44.4136 73.2076 44.4136L72.5076 49.8384C71.4059 49.5817 69.8192 49.0016 69.4129 50.4386C68.9609 52.0373 70.5763 52.3922 71.6326 52.6382C71.5363 53.7963 69.9277 56.7681 69.7077 57.713C68.9545 57.5119 68.3928 56.7383 67.4993 56.8887C66.4494 57.0656 66.3829 57.7686 66.3829 58.938L66.5579 59.2879L66.7328 59.4629L68.1298 60.1686C67.8206 60.7525 68.1192 60.4887 67.6067 60.8629C67.4759 61.6218 65.3726 64.2081 64.8076 64.5993C64.1756 64.2565 57.4832 57.5467 56.976 56.8604C57.6869 55.8338 58.8911 54.9048 59.7978 53.5809C65.0525 45.9088 62.4797 39.9148 62.8774 38.9885L70.896 31.0084L71.7271 33.1903C70.5075 33.8642 68.5122 33.7746 69.803 36.0136V36.0136ZM41.0566 29.139L54.8357 43.011L52.9448 44.874L39.1608 31.0696L41.0566 29.139V29.139ZM29.2448 29.2498C29.6848 28.4587 30.9097 27.3899 31.6373 26.8188C34.5985 24.4929 38.3278 23.4357 42.3485 23.6784C42.1572 24.1557 33.9991 32.315 33.1313 32.9832C31.8312 32.0803 30.5465 30.2026 29.2448 29.2498V29.2498ZM73.7325 18.2793C74.3974 18.5941 74.8063 19.1713 75.3415 19.7053C75.8453 20.208 76.1926 20.4386 76.6602 21.1703L56.8936 40.9149L53.9815 37.914L73.7325 18.2793V18.2793ZM67.7828 12.3417C68.3921 12.6138 71.4104 15.6302 71.6803 16.2395C71.1216 17.0427 69.9126 18.0956 69.1638 18.8455C63.772 24.2438 57.222 31.0681 51.9855 36.0019L48.0469 31.9937L67.7828 12.3417V12.3417ZM48.0083 14.2175C50.2322 15.5157 50.1649 13.4959 50.8316 12.2933L53.0132 13.1286L45.0334 21.1476C43.2238 21.1964 41.6319 20.6816 39.4122 20.8925C37.612 21.0637 35.9747 21.4696 34.4239 22.0781C29.8843 23.8579 28.5929 26.1109 27.1525 27.0459C26.1124 26.3044 24.251 24.2192 23.2173 23.1814C22.3219 22.2826 19.8898 20.1453 19.4113 19.2144C19.7681 18.6781 22.4338 16.5309 23.1591 16.41C23.5325 15.9092 23.28 16.1957 23.859 15.8895C23.9728 16.3147 24.3439 16.8824 24.559 17.2895L24.734 17.4644L25.084 17.6394C26.0757 17.6394 26.9167 17.6149 27.1132 16.5226C27.278 15.6079 26.5077 15.0584 26.3089 14.3146C27.227 14.1007 30.0351 12.5015 31.3841 12.3897C31.6407 13.4918 31.8573 14.9322 33.4397 14.643C35.2887 14.3051 34.2202 11.9513 34.1839 11.5147L39.6087 10.8147C39.6087 12.3114 39.642 13.5326 41.0226 13.6071C42.4944 13.6864 42.5836 12.2449 42.5836 10.8147L48.0083 11.5147C47.7653 12.5571 47.2796 13.1074 48.0083 14.2175ZM62.883 7.39352C63.4828 7.75749 65.4614 9.69563 65.7426 10.2894C65.314 11.0245 57.2338 18.9052 55.8894 20.2707C54.2283 21.9572 52.6662 23.4932 50.9892 25.1701C49.4842 26.6744 47.6413 28.752 46.0509 30.0661L43.138 27.0811L62.883 7.39352V7.39352ZM65.8515 6.26457C66.5163 5.86319 67.7794 5.76681 68.694 5.58312C71.2834 5.06268 70.1488 4.69116 74.7394 9.28253C79.3432 13.8879 78.9487 12.7506 78.4267 15.3479C78.2476 16.2395 78.1342 17.5264 77.7264 18.203L65.8515 6.26457ZM80.8645 3.20013L79.5345 10.0014C78.59 9.55012 77.472 8.12788 76.6828 7.33909C75.8846 6.54048 74.4903 5.44101 74.0213 4.51427L80.8645 3.20013V3.20013ZM1.45965 73.0639C2.85921 72.8152 7.23855 68.6324 8.60409 67.7469C10.0377 69.5743 10.6779 69.4783 11.7211 70.2909C10.3948 72.0952 7.95023 73.1902 8.57272 74.7364C9.59357 77.2728 12.2147 73.426 13.2283 72.9033C13.626 74.7039 14.5731 75.5131 15.2871 76.6125C14.6997 77.9358 11.1568 81.1457 10.9565 82.5623C10.9289 83.4962 11.6723 84.2347 12.7824 83.9297C13.4472 83.7472 15.5376 80.9325 16.1046 80.2322C16.5982 79.6226 17.1557 78.7499 17.7343 78.3625C19.9801 78.8856 22.1647 79.8384 25.3179 78.0711C29.1534 75.9213 28.1862 74.0564 29.822 73.3005C30.2177 73.1176 30.1818 73.1471 30.5231 72.9517C34.111 70.899 35.6572 66.2971 34.0641 62.5576C33.7882 61.9094 33.47 61.5557 33.3086 60.8629C34.0535 60.3643 34.5517 59.7415 35.4089 59.2879C38.0716 61.0711 38.7904 64.3899 41.3639 62.6185C42.0514 62.1449 42.7094 61.6872 43.4094 61.1637C44.7636 60.1508 46.0135 59.3291 47.3866 58.3162C48.4562 57.5274 48.2967 57.4802 48.7306 56.1608C48.9963 55.3538 49.3814 54.3791 49.5832 53.5132C50.3365 54.0178 61.1512 64.9939 62.5765 66.4192C64.7887 68.6313 64.9761 68.8751 66.9596 66.5148C71.9478 60.5771 74.7061 55.8588 75.8649 46.721C76.2489 43.6944 76.0184 39.7901 75.5577 36.9884C75.3139 35.506 74.9752 34.0656 74.5436 32.7526C72.9014 27.7535 72.4346 29.5245 75.6136 26.3452C81.1767 20.7821 79.5148 23.3707 81.0134 16.8707L83.5174 4.50029C84.6765 -1.29599 84.2615 -0.443332 75.5845 1.29185C72.7147 1.86596 70.1231 2.42004 67.3013 2.98357C66.0272 3.23831 64.5328 3.53273 63.213 3.79503C61.3878 4.15824 59.5465 6.53859 57.7644 8.32101C54.48 11.605 55.7363 10.9727 53.3692 10.1783C51.1812 9.44391 49.6592 8.89248 47.184 8.4892C35.8685 6.64404 25.7352 9.75534 17.6013 16.9814C14.7417 19.522 15.2281 19.0704 20.1403 23.983C21.0429 24.8852 30.0057 33.6869 30.5087 34.4387C29.7645 34.5007 28.7059 34.9561 27.9496 35.2044C26.6597 35.6281 26.5088 35.5574 25.7794 36.5344L21.4757 42.5548C20.8993 43.3916 20.4382 44.0799 21.3528 44.9945C22.2153 45.857 24.0752 47.8798 24.909 48.4384C24.3368 49.293 23.712 49.8875 23.1591 50.7133C22.5211 50.5648 22.1288 50.2598 21.5841 50.0134C18.6278 48.6762 14.7734 49.4525 12.6115 51.5407C11.7052 52.416 11.6202 52.577 10.989 53.6047C10.5846 54.2631 10.9822 54.0873 9.68315 54.2003C8.69064 54.2865 7.77486 54.6301 7.02879 55.2325C4.91187 56.9424 4.16919 59.4554 5.20214 62.0205C5.86658 63.6699 7.0182 64.1284 7.40976 64.7127C7.20567 65.4773 5.87263 66.2374 5.25581 66.7589L0.52573 70.6042C-0.507214 71.6421 0.123967 73.1089 1.45965 73.0639V73.0639ZM3.55994 44.0636C3.55994 44.9099 4.11326 45.4636 4.95987 45.4636C5.99131 45.4636 8.48126 42.5545 9.29083 41.7449C10.6753 40.3604 11.9312 39.1045 13.3157 37.7201L19.3531 31.6827C19.9158 31.1199 21.0591 30.3228 21.0591 29.3639C21.0591 28.5173 20.5058 27.964 19.6592 27.964C18.7003 27.964 17.9032 29.1077 17.3405 29.6701L5.26601 41.7449C4.70324 42.3077 3.55994 43.1048 3.55994 44.0636V44.0636ZM4.2599 33.5637C4.2599 34.4103 4.81323 34.9637 5.65984 34.9637C6.64441 34.9637 8.44951 32.7863 9.46582 31.7703C10.4821 30.754 12.6595 28.9485 12.6595 27.964C12.6595 27.1174 12.1058 26.564 11.2596 26.564C10.275 26.564 8.46954 28.7414 7.45323 29.7577C6.43729 30.7741 4.2599 32.5792 4.2599 33.5637ZM13.3595 42.3137C13.3595 43.742 13.6811 44.0636 15.1094 44.0636C15.4749 44.0636 19.6592 40.2361 19.6592 39.1638C19.6592 38.3172 19.1059 37.7635 18.2593 37.7635C17.2724 37.7635 16.1934 39.2168 15.5905 39.82C15.1442 40.2663 13.3595 41.7453 13.3595 42.3137V42.3137ZM37.1588 78.7125C37.1588 80.1407 37.4804 80.4624 38.9087 80.4624C39.493 80.4624 45.7912 73.8425 46.3022 73.3315L51.727 67.9064C52.2678 67.3659 53.2581 66.703 53.2581 65.7626C53.2581 64.9164 52.7048 64.3627 51.8581 64.3627C50.8698 64.3627 48.9865 66.6221 47.9645 67.6441L40.7021 74.9061C40.1677 75.4409 37.1588 78.2037 37.1588 78.7125ZM50.4582 76.6125C50.4582 78.0408 50.7798 78.3625 52.2081 78.3625C52.5865 78.3625 57.4579 73.8365 57.4579 72.7627C57.4579 71.9161 56.9046 71.3628 56.0579 71.3628C54.9842 71.3628 50.4582 76.2342 50.4582 76.6125V76.6125Z" fill="#438777"/>
<path fill-rule="evenodd" clip-rule="evenodd" d="M24.6232 69.7879C25.7911 70.9111 28.2811 70.7577 29.6549 69.9806C31.0133 69.2119 31.793 67.4941 31.8161 65.4127L31.2057 66.2895C30.0193 68.6241 27.4084 69.7879 24.6232 69.7879ZM48.0083 14.2175C47.6334 14.6154 47.4297 14.6616 47.003 15.058C46.5521 15.4772 46.4731 15.5592 45.9602 15.9413C43.5417 17.7426 41.0876 18.9011 37.9914 19.522C34.4912 20.2239 31.2661 20.0198 27.8593 18.8893L25.7284 18.045C25.3466 17.8715 25.3304 17.8534 25.084 17.6394L24.734 17.4645L24.559 17.2895C23.9773 17.1538 23.455 16.8204 23.1591 16.41C22.4338 16.5309 19.7681 18.6781 19.4113 19.2144C19.8898 20.1453 22.3219 22.2826 23.2173 23.1814C24.251 24.2192 26.1124 26.3044 27.1525 27.0459C28.5929 26.1109 29.8843 23.8579 34.4239 22.0781C35.9747 21.4696 37.612 21.0637 39.4122 20.8925C41.6319 20.6816 43.2238 21.1964 45.0334 21.1476L53.0132 13.1286L50.8316 12.2933C50.1649 13.496 50.2322 15.5157 48.0083 14.2175V14.2175ZM48.0469 31.9937L51.9855 36.0019C57.222 31.0681 63.772 24.2438 69.1638 18.8455C69.9126 18.0956 71.1216 17.0427 71.6803 16.2395C71.4104 15.6302 68.3921 12.6138 67.7828 12.3417L48.0469 31.9937V31.9937ZM67.6067 60.8629C67.2023 60.5654 66.8674 60.042 66.7328 59.4629L66.5579 59.288L66.3829 58.938C65.5926 58.029 64.5842 54.4093 64.3793 53.2415C63.4337 47.8541 64.8684 42.3908 68.0054 38.1611C68.349 37.6978 68.507 37.5205 68.8717 37.1025C69.2727 36.6433 69.3596 36.4347 69.803 36.0136C68.5122 33.7746 70.5075 33.8642 71.7271 33.1903L70.896 31.0084L62.8774 38.9885C62.4797 39.9148 65.0525 45.9088 59.7978 53.5809C58.8911 54.9048 57.6869 55.8338 56.976 56.8604C57.4832 57.5467 64.1756 64.2565 64.8076 64.5993C65.3726 64.2081 67.4759 61.6218 67.6067 60.8629V60.8629ZM29.8681 37.6127L46.3854 54.1244L47.3915 51.2549L32.8169 36.6497L29.8681 37.6127V37.6127ZM14.4503 63.6628L15.4594 64.3627C14.6608 64.3627 14.6109 64.2471 13.8845 64.1216C12.2793 64.1163 11.8401 63.3317 11.2592 62.4378L11.0846 62.2628C10.7082 62.0013 10.854 62.2375 10.7346 61.7378L10.5596 61.3879C10.4217 61.2295 10.458 61.3368 10.2648 60.9827C10.0981 60.6762 10.1178 60.6928 10.0222 60.3504C9.89934 59.9104 9.85814 59.5552 9.86343 58.938V58.763C9.38948 58.4504 8.96957 58.187 8.45972 57.8483C8.14942 58.0774 8.04888 58.1496 7.82551 58.6624C6.71924 61.1993 9.40271 62.3327 9.76668 62.7043C10.591 63.5456 9.66349 66.1281 12.5019 67.4914C13.9597 68.1918 15.6918 67.4771 15.7867 69.2667C15.8906 71.2313 15.3853 71.602 16.4587 73.513C18.3507 76.8817 23.6001 77.5151 26.1222 73.3848L23.509 72.5507C20.3452 72.8107 18.8644 72.0582 17.339 70.5332C16.5332 69.727 16.0966 69.2088 15.693 67.979C15.1446 66.3065 15.3177 66.0658 15.4594 64.3627C16.5177 64.4508 18.3175 65.4701 19.4842 64.6432L20.2881 62.2628C17.7218 62.0054 15.2564 60.7484 13.581 58.8953C12.9109 58.1541 13.378 58.4054 12.7385 58.063C12.8364 59.3703 13.1807 60.3122 13.8161 61.1063C14.6374 62.1324 14.9919 62.1846 14.4503 63.6628V63.6628Z" fill="#CEF1A8"/>
</svg>
