<svg width="84" height="84" viewBox="0 0 84 84" fill="none" xmlns="http://www.w3.org/2000/svg">
<g clip-path="url(#clip0_1_50)">
<path fill-rule="evenodd" clip-rule="evenodd" d="M37.7877 5.59446C37.7877 6.73701 37.4426 7.09304 36.4842 7.43433C35.5438 7.7692 34.972 8.08479 34.1469 8.42683C32.1649 9.24888 31.8637 6.90633 30.0975 6.05556C29.4837 6.42369 24.6308 11.2777 24.2646 11.8889C25.0481 13.516 27.3347 13.9733 26.6903 15.8079C26.4563 16.4731 25.9869 17.2683 25.6864 18.1436C25.0511 19.9937 24.1568 19.5787 21.0032 19.5787V27.9768C23.8677 27.9768 25.0405 27.5709 25.6433 29.2808C25.9774 30.2287 26.2526 30.7725 26.6256 31.6328C27.445 33.5233 25.0534 34.0294 24.2646 35.667L30.0378 41.5582C30.9101 41.1197 31.5107 40.2935 32.1369 39.6302C33.3199 38.3762 33.6015 39.027 34.9674 39.4893L34.9962 31.8206C34.7085 31.2888 33.9073 30.9986 33.4178 30.6017C32.8441 30.1361 32.5678 29.8526 32.058 29.1613C30.3613 26.8603 30.7997 23.1636 30.7997 19.9313C30.7997 15.2523 33.9235 12.5911 38.6649 12.5911C40.0554 12.5911 40.5853 13.1195 40.5853 14.5115V20.9832H43.3965L43.3882 14.5115C43.3871 12.7627 44.2186 12.5911 45.6586 12.5911C50.1283 12.5911 53.1738 15.4658 53.1738 19.9313C53.1738 24.4312 53.8363 27.9148 50.5546 30.6006C48.3953 32.3679 48.9774 29.9614 48.9774 39.5584C50.3388 39.1049 50.6699 38.4903 51.8563 39.6091C52.566 40.2788 53.1197 41.04 53.876 41.5654L59.74 35.718C58.2081 33.8237 56.671 33.4484 57.2995 31.7586C57.5796 31.005 57.9787 30.3152 58.3049 29.43C58.9644 27.6393 59.9573 28.0464 62.9703 28.0464L62.9186 19.6464C62.0496 19.6483 59.7211 19.7854 59.0699 19.4593C58.3945 19.1206 58.1012 17.636 57.7209 16.789C56.5187 14.1112 57.2583 14.8003 59.7521 11.9444C58.2898 10.5827 55.0379 7.04277 53.876 6.12624C52.817 6.7714 51.6367 9.12076 50.016 8.58558C49.3519 8.36636 48.5647 7.87276 47.7056 7.56699C45.7996 6.88819 46.1858 6.69732 46.1858 2.7942H37.7907L37.7877 5.59446V5.59446Z" fill="#72B69A"/>
<path fill-rule="evenodd" clip-rule="evenodd" d="M22.4557 82.5241C23.0268 78.3311 23.8639 74.005 24.5639 69.806C24.881 67.9045 26.0923 64.5978 23.802 64.3525C21.5429 64.1106 18.666 64.4954 16.2992 64.3087C12.6274 64.0195 11.3601 61.5602 9.84756 59.5884C9.24699 58.8057 8.80139 58.1246 8.2371 57.349C7.11912 55.8123 6.17046 54.4588 5.05776 53.0135C4.45682 52.2327 4.06904 51.6438 3.50098 50.9008C2.74772 49.9147 2.54211 49.3289 3.26551 48.2139C4.73991 47.8802 4.91112 48.5076 5.69537 49.2246L15.3335 57.95C16.2565 58.9474 16.5751 58.752 18.2079 58.7452C19.5035 58.7403 20.7999 58.7444 22.0955 58.7444C23.4418 63.1695 25.9264 61.0802 25.4166 59.4164C24.4951 56.4091 21.1192 52.179 22.9448 50.7152C24.1175 49.7752 25.1342 50.7557 25.6331 51.4972C26.7371 53.1379 27.9636 54.7204 29.108 56.4125C32.0954 60.8296 31.0556 58.2021 33.5732 60.1629C35.0071 61.2801 36.3043 62.9764 36.3889 65.7324C36.5582 71.2244 36.3934 77.0003 36.3934 82.5241C36.5117 84.0091 38.1184 84.3991 38.8876 83.4467C39.4923 82.6976 39.1892 80.5795 39.1892 79.3769L39.1895 66.2638C39.1994 61.9268 37.1357 58.2334 33.3434 56.7239C32.434 56.3618 32.5931 56.4627 32.0878 55.7068C31.4831 54.8035 30.867 53.9909 30.2736 53.1496C28.4364 50.5455 26.6245 46.6428 23.0604 47.5079C20.6188 48.1005 19.2102 49.923 19.4332 52.6235C19.5375 53.8893 20.3758 54.7449 20.6563 55.9483C19.8947 55.9483 19.1305 55.9608 18.3708 55.9608C17.2505 55.9608 16.9225 55.6535 15.5418 54.2442L6.82205 46.354C5.84466 45.5694 5.13033 45.0637 3.18652 45.2965C0.768378 45.586 -0.752126 48.8784 0.369638 51.2326C0.96189 52.4753 9.28063 63.7984 10.3627 64.6685C14.2069 67.7601 16.0078 67.138 22.0551 67.138L20.0066 79.6014C19.8641 80.4563 19.6339 81.3831 19.5934 82.1854C19.4782 84.477 22.1688 84.6032 22.4557 82.5241V82.5241ZM46.1843 34.9678V48.7801C46.1843 50.53 46.2814 51.4465 45.4397 52.7588C44.9666 53.4962 43.9718 54.3114 42.6353 54.4996C39.8438 54.8927 37.9094 52.9013 37.7945 50.3622C37.5307 44.5451 37.7892 38.0602 37.7907 32.1687H46.1843V34.9678V34.9678ZM37.7877 5.59445C37.7877 6.737 37.4426 7.09304 36.4842 7.43433C35.5438 7.76919 34.972 8.08478 34.1469 8.42683C32.1649 9.24888 31.8637 6.90633 30.0975 6.05556C29.4837 6.42368 24.6308 11.2777 24.2646 11.8889C25.0481 13.516 27.3347 13.9733 26.6903 15.8079C26.4563 16.4731 25.9869 17.2683 25.6864 18.1436C25.0511 19.9937 24.1569 19.5787 21.0032 19.5787V27.9768C23.8677 27.9768 25.0405 27.5709 25.6433 29.2808C25.9774 30.2287 26.2526 30.7725 26.6256 31.6328C27.445 33.5233 25.0534 34.0294 24.2646 35.667L30.0378 41.5582C30.9101 41.1197 31.5107 40.2935 32.1369 39.6302C33.3199 38.3762 33.6015 39.027 34.9674 39.4893L34.9962 31.8206C34.7085 31.2888 33.9073 30.9985 33.4178 30.6017C32.8441 30.1361 32.5678 29.8526 32.058 29.1613C30.3613 26.8603 30.7997 23.1636 30.7997 19.9313C30.7997 15.2523 33.9235 12.5911 38.6649 12.5911C40.0554 12.5911 40.5853 13.1195 40.5853 14.5115V20.9832H43.3965L43.3882 14.5115C43.3871 12.7627 44.2186 12.5911 45.6586 12.5911C50.1283 12.5911 53.1738 15.4658 53.1738 19.9313C53.1738 24.4312 53.8363 27.9148 50.5546 30.6006C48.3953 32.3679 48.9774 29.9614 48.9774 39.5584C50.3388 39.1049 50.6699 38.4903 51.8563 39.6091C52.566 40.2788 53.1197 41.04 53.876 41.5654L59.74 35.718C58.2081 33.8237 56.671 33.4484 57.2995 31.7586C57.5796 31.005 57.9787 30.3152 58.3049 29.43C58.9644 27.6393 59.9573 28.0464 62.9703 28.0464L62.9186 19.6464C62.0496 19.6482 59.7211 19.7854 59.0699 19.4593C58.3945 19.1206 58.1012 17.636 57.7209 16.789C56.5187 14.1112 57.2583 14.8002 59.7521 11.9444C58.2898 10.5827 55.0379 7.04277 53.876 6.12623C52.817 6.7714 51.6367 9.12075 50.016 8.58557C49.3519 8.36636 48.5647 7.87275 47.7056 7.56699C45.7996 6.88819 46.1858 6.69732 46.1858 2.7942H37.7907L37.7877 5.59445V5.59445ZM37.77 15.4125V22.365C37.77 23.1345 38.3992 23.7638 39.1688 23.7638H39.4923H40.5415H43.3916H43.8641H44.7647C45.5339 23.7638 46.1635 23.1345 46.1635 22.365V15.4337C48.4486 15.6911 50.358 16.6753 50.3864 20.0988C50.4121 23.1734 50.7598 26.4317 49.2257 27.9742C48.2415 29.7188 45.0773 29.3741 42.686 29.3741C36.1036 29.3741 33.5917 30.1516 33.5928 22.9036C33.5932 20.541 33.2799 17.4947 34.9931 16.5369C35.6349 15.8362 36.6414 15.5339 37.77 15.4125V15.4125ZM34.9931 4.89524C34.5071 5.15225 34.2047 5.27735 33.5943 5.41984C31.8346 4.24138 31.7915 2.62223 29.7479 2.62223C29.1651 2.62223 23.7997 8.30815 22.9727 9.13511C21.23 10.8779 20.8312 10.6828 20.8312 12.2385C20.8312 12.9574 23.6285 14.9284 23.6285 15.3857C23.6285 16.1439 23.3503 15.9254 23.2789 16.7841C20.6922 16.7841 18.2086 16.2826 18.2086 18.1829V29.3726C18.2086 31.2779 20.6699 30.7714 23.1039 30.7714C23.3613 31.2574 23.4864 31.5598 23.6285 32.1702C22.7414 33.4953 20.8312 34.1601 20.8312 36.0166C20.8312 36.438 25.5073 41.0623 26.3195 41.8927L27.5165 42.9691C29.1375 44.4533 29.8613 46.4799 31.92 43.7839C33.8555 41.2494 33.8374 42.3897 34.9931 42.4857C34.9931 45.3316 34.5963 50.685 35.3628 52.7811C36.1372 54.8995 38.5599 57.3471 41.4622 57.3471H42.5114C45.34 57.3471 47.7335 55.0163 48.5628 52.9081C49.4275 50.7084 48.9804 45.5977 48.9804 42.6607C49.4665 42.4033 49.7688 42.2782 50.3792 42.1361C51.7039 43.0235 52.3688 44.9337 54.2256 44.9337C54.8746 44.9337 63.3173 36.706 63.3173 35.667C63.3173 34.4065 60.3451 32.7534 60.3451 32.1702C60.3451 31.412 60.6232 31.6305 60.6947 30.7714C63.2814 30.7714 65.7649 31.2733 65.7649 29.3726V18.1829C65.7649 17.1239 65.1061 16.7905 64.0278 16.7732C62.9892 16.7562 61.9136 16.7841 60.8693 16.7841C60.6123 16.2981 60.4872 15.9957 60.3451 15.3857C61.4872 13.6796 64.6469 12.5495 62.3195 10.2637C61.8531 9.80598 61.5677 9.70393 61.0847 9.22582C60.2536 8.4034 54.8168 2.62223 54.2256 2.62223H53.526C52.8072 2.62223 50.8362 5.41984 50.3792 5.41984C49.621 5.41984 49.8395 5.14129 48.9804 5.06985C48.9804 2.48352 49.482 -0.00038147 47.5816 -0.00038147H36.3919C34.4867 -0.00038147 34.9931 2.46122 34.9931 4.89524V4.89524ZM43.3848 47.0317L43.3841 35.3174C43.3357 34.2055 42.6584 33.1801 41.4372 33.7066C40.4096 34.1499 40.5861 35.4841 40.5891 36.7158C40.5952 39.2217 40.5895 41.7282 40.5895 44.2341C40.5895 45.7448 40.173 50.4748 41.0222 51.3203C41.8424 52.1363 43.0942 51.5879 43.3243 50.6513C43.4808 50.016 43.3837 47.8277 43.3848 47.0317ZM47.5801 82.5241C47.5801 77.0151 47.475 71.4051 47.5805 65.9089C47.6889 60.2445 52.1957 59.4244 53.0865 58.8287L58.2648 51.5943C60.003 49.1739 62.5765 50.4771 61.2098 53.4875C60.4161 55.2367 59.2324 57.5452 58.6031 59.2872C57.9349 61.1365 60.5416 63.1362 61.8777 58.7444C63.1151 58.7444 64.3533 58.7403 65.5907 58.7452C67.3792 58.752 67.4249 58.9202 68.5191 58.004C69.2103 57.425 69.741 56.8078 70.4323 56.2458C71.1534 55.6596 71.6474 55.0647 72.3485 54.4906L78.0907 49.2204C78.641 48.7533 79.4578 47.7471 80.4888 48.1988C81.4666 48.7517 81.2122 49.7805 80.5742 50.6483C80.0243 51.3967 79.4532 52.1582 78.9505 52.8726L72.6028 61.5606C71.6882 62.7651 70.108 64.0467 67.8274 64.2879C65.4584 64.5385 62.725 64.1896 60.3364 64.3412C57.8317 64.5007 59.0498 67.6335 59.3885 69.6654C60.0934 73.8947 60.98 78.3254 61.5179 82.5241C61.807 84.6191 64.4043 84.4108 64.3869 82.3578C64.3801 81.5618 64.1242 80.547 63.9919 79.7514L62.318 69.7107C62.1683 68.801 61.9185 68.0251 61.9185 67.138C64.8918 67.138 68.397 67.4321 70.5902 66.5435C72.0363 65.9573 72.4256 65.6232 73.5349 64.7671C74.4971 64.0244 75.0009 63.1737 75.7036 62.2156L81.6763 54.0265C82.2864 53.1583 83.1318 52.2202 83.6035 51.2326C84.8489 48.6274 82.9867 45.7323 80.9363 45.3226C79.1921 44.9737 78.1032 45.5724 77.2475 46.2754L67.3153 55.2261C66.0548 56.2772 66.7185 55.9483 63.3173 55.9483C63.5811 54.8152 65.8159 51.9016 63.6994 49.2718C62.9378 48.3254 62.3751 47.8938 61.0526 47.5453C59.5695 47.1549 58.0282 47.6731 57.0361 48.6183C56.2889 49.33 52.6734 54.556 51.9557 55.6018C51.4934 56.2757 51.6234 56.3365 50.7587 56.6778C46.986 58.1681 44.7674 61.7556 44.7836 66.0884L44.784 79.2023C44.784 80.3936 44.4695 82.5044 45.0119 83.3454C45.6661 84.3598 47.452 84.1327 47.5801 82.5241V82.5241Z" fill="#438777"/>
<path fill-rule="evenodd" clip-rule="evenodd" d="M49.2257 27.9742C44.9552 27.9742 41.5529 28.6178 38.2375 26.1286C37.1025 25.2763 36.0835 23.9713 35.5801 22.4916C34.9005 20.4949 34.9931 19.0945 34.9931 16.5369C33.2799 17.4947 33.5932 20.541 33.5928 22.9036C33.5917 30.1516 36.1036 29.3741 42.686 29.3741C45.0773 29.3741 48.2415 29.7188 49.2257 27.9742V27.9742ZM22.4557 82.5241H36.3934C36.3934 77.0003 36.5582 71.2244 36.3889 65.7324C36.3043 62.9764 35.0071 61.2801 33.5732 60.1629C31.0556 58.2021 32.0954 60.8296 29.108 56.4125C27.9636 54.7204 26.7371 53.1379 25.6331 51.4972C25.1342 50.7556 24.1175 49.7752 22.9448 50.7152C21.1192 52.179 24.4951 56.4091 25.4166 59.4164C25.9264 61.0802 23.4418 63.1695 22.0955 58.7444C20.7999 58.7444 19.5035 58.7403 18.2079 58.7452C16.5751 58.752 16.2565 58.9474 15.3335 57.95L5.69537 49.2246C4.91112 48.5076 4.73991 47.8802 3.26551 48.2139C2.54211 49.3289 2.74772 49.9147 3.50098 50.9008C4.06904 51.6438 4.45682 52.2327 5.05776 53.0135C6.17046 54.4588 7.11912 55.8123 8.2371 57.349C8.80139 58.1246 9.24699 58.8057 9.84756 59.5884C11.3601 61.5602 12.6274 64.0195 16.2992 64.3087C18.666 64.4954 21.5429 64.1106 23.802 64.3525C26.0923 64.5978 24.881 67.9045 24.5639 69.806C23.8639 74.005 23.0268 78.3311 22.4557 82.5241V82.5241ZM47.5801 82.5241H61.5179C60.98 78.3254 60.0934 73.8947 59.3885 69.6654C59.0498 67.6335 57.8317 64.5007 60.3364 64.3412C62.725 64.1896 65.4584 64.5384 67.8274 64.2879C70.108 64.0467 71.6882 62.7651 72.6028 61.5606L78.9505 52.8726C79.4532 52.1582 80.0243 51.3967 80.5742 50.6483C81.2122 49.7805 81.4666 48.7517 80.4888 48.1988C79.4578 47.7471 78.641 48.7533 78.0907 49.2204L72.3485 54.4906C71.6474 55.0647 71.1534 55.6596 70.4323 56.2458C69.741 56.8078 69.2103 57.425 68.5191 58.004C67.4249 58.9202 67.3792 58.752 65.5907 58.7452C64.3533 58.7403 63.1151 58.7444 61.8777 58.7444C60.5416 63.1362 57.9349 61.1365 58.6031 59.2872C59.2324 57.5452 60.4161 55.2367 61.2098 53.4875C62.5765 50.4771 60.003 49.1739 58.2648 51.5943L53.0865 58.8287C52.1957 59.4244 47.6889 60.2445 47.5805 65.9089C47.475 71.4051 47.5801 77.015 47.5801 82.5241V82.5241ZM46.1843 48.7801C45.5713 48.4872 45.244 48.452 44.6374 48.0525C44.1173 47.7101 43.8622 47.3507 43.3848 47.0317C43.3837 47.8276 43.4808 50.016 43.3243 50.6513C43.0942 51.5879 41.8424 52.1363 41.0222 51.3203C40.173 50.4748 40.5895 45.7448 40.5895 44.2341C40.5895 41.7282 40.5952 39.2217 40.5891 36.7158C40.5861 35.4841 40.4096 34.1499 41.4372 33.7066C42.6584 33.1801 43.3357 34.2055 43.3841 35.3174C44.5387 35.0491 44.6751 34.9678 46.1843 34.9678V32.1687H37.7907C37.7892 38.0602 37.5307 44.5451 37.7945 50.3622C37.9094 52.9013 39.8438 54.8927 42.6353 54.4996C43.9718 54.3114 44.9666 53.4962 45.4397 52.7588C46.2814 51.4465 46.1843 50.53 46.1843 48.7801V48.7801Z" fill="#CEF1A8"/>
</g>
<defs>
<clipPath id="clip0_1_50">
<rect width="83.9992" height="83.9992" fill="white"/>
</clipPath>
</defs>
</svg>
