<svg width="84" height="84" viewBox="0 0 84 84" fill="none" xmlns="http://www.w3.org/2000/svg">
<path fill-rule="evenodd" clip-rule="evenodd" d="M11.2656 53.534C10.4712 46.5895 13.7431 47.582 17.8983 47.5933C19.9952 47.599 22.0936 47.5948 24.1905 47.5892C26.3036 47.5831 27.7678 48.0609 28.0139 50.0542C28.252 51.9802 28.1915 54.3848 27.0229 55.3247C25.7416 56.3554 23.2335 55.9846 21.3933 55.9797C19.3028 55.9741 13.691 56.3222 12.4577 55.4835C11.9989 55.1709 11.3609 54.3644 11.2656 53.534ZM64.3737 8.45028V2.85242L60.4312 2.85431L61.347 8.3384L64.3737 8.45028V8.45028ZM63.563 18.2238C63.3328 15.7773 63.8109 13.6415 64.1613 11.2649L61.302 11.2588L60.3447 18.2279L63.563 18.2238V18.2238ZM75.6975 30.0503L75.8022 30.6841C72.4052 30.3976 69.038 28.3824 67.5719 26.6283C66.1077 26.6049 64.6246 26.617 63.1589 26.6211C62.2874 26.6238 59.6874 26.4854 59.0506 26.7957L58.814 28.6949C63.9515 29.7241 62.9643 29.0767 62.9873 36.4101L76.7297 36.3481C76.5766 35.3991 76.0346 30.48 75.6975 30.0503ZM51.5947 32.7383C51.9152 33.8631 51.7962 35.15 51.7962 36.4101L60.1916 36.4108L60.1633 31.9079L53.754 30.2854C53.2607 31.7673 52.5547 31.8652 51.5947 32.7383V32.7383ZM43.4646 31.9733L40.6171 31.1603L40.6144 36.4082L43.4071 36.4097L43.4646 31.9733V31.9733ZM29.2267 32.7383C29.5495 33.8748 29.4304 35.1455 29.4304 36.4082L37.8229 36.4097L37.7964 31.9106L31.3848 30.2854C30.8814 31.7798 30.1826 31.8531 29.2267 32.7383ZM21.0403 31.9892L18.2457 31.1717L18.2468 36.4108L21.0444 36.4052L21.0403 31.9892ZM81.1601 68.5693C77.4947 68.5667 73.8123 68.6007 70.1492 68.5659C68.2877 68.5485 66.4191 68.572 64.557 68.5678L59.9837 68.2602C58.9519 67.9869 60.8708 68.5894 59.7018 68.1657L59.4263 68.0398C55.0798 69.0078 47.8583 68.5459 43.0549 68.5629C43.9767 70.8525 47.9422 75.4178 49.3761 76.7516C49.8493 77.1916 50.8097 77.9376 50.197 79.0046C49.6902 79.8871 48.4671 79.7541 47.2566 79.7488C45.2186 79.7401 41.8911 80.2987 40.6957 78.9736C38.6351 76.6896 36.8568 72.7801 36.4796 68.64C36.0692 64.1378 37.3191 60.0832 38.8558 56.6094C38.2337 56.2254 36.6618 53.9433 36.1485 53.1084C35.362 51.8283 34.5732 50.5557 33.9118 49.0518C32.5444 45.9439 31.5715 42.9256 31.1059 39.1914C26.7443 39.2988 22.1291 39.1019 17.8877 39.1971C16.4787 39.2289 10.4357 42.5681 8.91439 43.3293C6.08202 44.7455 7.03899 43.7034 5.10879 48.2616C4.62425 49.4068 4.20284 50.3516 3.74476 51.4398C3.13096 52.8987 2.86073 53.0343 2.86866 54.9301L2.86828 81.1446L7.06545 81.1465C7.06545 75.3218 7.0458 69.4942 7.06394 63.6696C7.08208 57.8283 5.1171 58.7804 19.646 58.7747C34.1231 58.769 32.2322 57.8415 32.2299 63.6696C32.2277 69.493 32.2129 75.3188 32.2311 81.1453L81.1586 81.1419L81.1601 68.5693V68.5693Z" fill="#CEF1A8"/>
<path fill-rule="evenodd" clip-rule="evenodd" d="M38.8558 56.6094C39.572 55.5632 39.82 54.8092 41.119 52.9897C43.42 49.7669 47.3083 46.746 51.261 45.1321C57.3967 42.6263 66.4294 43.3912 73.6441 43.3973C75.4174 43.3984 78.0276 42.8916 78.3315 44.6468C78.5284 45.7856 78.0295 48.971 77.7555 50.1233C75.6469 58.9916 68.1925 66.6489 59.4263 68.0398L59.7018 68.1657C60.8708 68.5894 58.9519 67.9869 59.9837 68.2602L64.557 68.5678C66.4191 68.572 68.2877 68.5485 70.1492 68.5659C73.8123 68.6007 77.4947 68.5667 81.1601 68.5693L81.1559 39.2035L31.1059 39.1914C31.5715 42.9256 32.5444 45.9439 33.9118 49.0518C34.5732 50.5557 35.362 51.8283 36.1485 53.1084C36.6618 53.9433 38.2337 56.2254 38.8558 56.6094Z" fill="#FDFEFD"/>
<path fill-rule="evenodd" clip-rule="evenodd" d="M14.058 50.3936L25.2446 50.3853L25.2336 53.1795L14.047 53.1874L14.058 50.3936V50.3936ZM9.85701 80.0965L9.86306 78.3477L29.4346 78.3447L29.4289 81.1465L9.85701 81.1495V80.0965ZM9.85625 74.5043L9.85701 72.754L29.4342 72.7525L29.4346 75.5558L9.86381 75.5482L9.85625 74.5043V74.5043ZM9.85928 67.1618L29.4346 67.1667L29.4308 69.9568L9.85852 69.9636L9.85928 67.1618V67.1618ZM9.86079 61.5764L29.4346 61.5696L29.4323 64.3714L9.85701 64.3669L9.86079 61.5764V61.5764ZM31.1059 39.1914L81.1559 39.2035L81.1601 68.5693L81.1586 81.1419L32.2311 81.1453C32.2129 75.3188 32.2277 69.493 32.2299 63.6695C32.2322 57.8415 34.1231 58.769 19.646 58.7747C5.1171 58.7803 7.08208 57.8283 7.06394 63.6695C7.0458 69.4942 7.06545 75.3218 7.06545 81.1465L2.86828 81.1446L2.86866 54.9301C2.86073 53.0343 3.13096 52.8986 3.74476 51.4398C4.20284 50.3516 4.62425 49.4067 5.10879 48.2615C7.03899 43.7034 6.08202 44.7455 8.91439 43.3293C10.4357 42.5681 16.4787 39.2289 17.8877 39.1971C22.1291 39.1019 26.7443 39.2988 31.1059 39.1914V39.1914ZM46.2312 34.0407L48.9781 34.7055L49.0054 36.404L46.2051 36.415L46.2312 34.0407V34.0407ZM23.836 34.0467L26.603 34.7093L26.6468 35.3594L26.6404 36.4127H25.5874L23.8352 36.4055L23.836 34.0467ZM43.4646 31.9733L43.4071 36.4097L40.6144 36.4082L40.6171 31.1603L40.628 27.0312L53.754 30.2854L60.1633 31.9079L60.1916 36.4108L51.7962 36.4101C51.7962 35.15 51.9152 33.8631 51.5947 32.7383C50.6434 31.9914 48.8459 31.7273 47.3979 31.3663C45.7345 30.9513 43.9654 30.0612 43.4646 31.9733V31.9733ZM21.0403 31.9892L21.0444 36.4052L18.2468 36.4108L18.2457 31.1717L18.2597 27.0274L31.3848 30.2854L37.7964 31.9106L37.8229 36.4097L29.4304 36.4082C29.4304 35.1455 29.5495 33.8748 29.2267 32.7383C28.2796 31.9911 26.4828 31.7261 25.0303 31.3678C23.2596 30.9313 21.7304 30.0639 21.0403 31.9892V31.9892ZM67.5719 26.6283L75.2946 26.6321L75.6975 30.0503C76.0346 30.48 76.5766 35.3991 76.7297 36.3481L62.9873 36.4101C62.9643 29.0767 63.9515 29.7241 58.814 28.6949L59.0506 26.7957C59.6874 26.4854 62.2874 26.6238 63.1589 26.6211C64.6246 26.6169 66.1077 26.6049 67.5719 26.6283V26.6283ZM59.9301 21.1211C61.1134 20.8433 65.6557 21.0198 67.1781 21.0289C68.4412 21.0365 73.3002 20.8562 74.4363 21.1843L74.8365 23.8261L59.4939 23.8292L59.9301 21.1211V21.1211ZM64.1613 11.2649L72.9033 11.2762L73.9347 18.2302L63.563 18.2238L60.3447 18.2279L61.302 11.2588L64.1613 11.2649V11.2649ZM64.3737 8.45027L61.347 8.3384L60.4312 2.8543L64.3737 2.85242L73.9011 2.85393L72.9831 8.44876L64.3737 8.45027ZM0.349229 83.3151C1.06507 84.3383 4.49008 83.9441 6.01512 83.941L80.2847 83.9403C82.8034 83.9429 83.9849 84.3666 83.9611 81.4983C83.8915 73.2321 83.9788 64.9485 83.9558 56.6797C83.9437 52.5456 83.9441 48.4059 83.9546 44.2719C83.9766 35.6447 84.6973 36.3878 79.5526 36.4086C78.726 29.6602 77.4531 22.8276 76.5029 16.0649C75.6574 10.0445 75.2738 11.5283 76.2357 5.95427C77.4901 -1.31451 79.6709 0.105832 60.1875 0.0574544C57.5747 0.0506512 57.1517 0.357549 57.6102 2.97223C58.4716 7.88183 58.9875 8.59427 58.3015 13.0258C57.5864 17.6451 56.8263 23.7884 55.9782 28.0003C52.3015 27.1752 48.6123 26.1071 44.9941 25.2091C43.7643 24.9037 40.3722 23.8598 39.377 23.8156C37.0152 23.7112 38.0258 27.0592 37.7628 29.0113C35.3182 28.2455 32.2224 27.6363 29.6194 26.9598C26.8997 26.2526 24.2604 25.6055 21.5244 24.9116C16.2251 23.5676 15.445 22.735 15.4518 26.7965C15.4575 30.1931 15.4522 33.5909 15.4522 36.988L7.20832 41.0899C5.06457 42.1644 4.81172 41.8197 3.86873 44.0481L0.167812 52.7482C-0.0857942 53.7721 0.072568 57.4764 0.0740798 58.7766C0.0774814 61.4521 -0.21581 82.5078 0.349229 83.3151V83.3151ZM45.5497 76.9565L42.6289 76.9538C41.0109 74.2114 39.9991 73.2314 39.3804 69.5928C39.3774 69.5762 39.3082 69.0176 39.3082 69.0127L39.3929 68.5644C40.0414 68.7485 39.9118 68.9677 40.2667 69.611L45.5497 76.9565V76.9565ZM39.5614 63.4983C39.8922 60.2196 42.0654 56.1362 43.7053 54.1773C48.7385 48.1633 54.1028 46.1666 62.2851 46.1896C66.6947 46.2021 71.1606 46.1152 75.5611 46.1994C74.3853 57.9825 65.4255 65.6013 54.7805 65.76C50.5047 65.8235 45.7364 65.9195 41.4905 65.7521C42.7533 64.3219 45.7701 62.1687 47.6277 60.8942C53.1772 57.0867 59.963 53.9667 66.6576 52.3075C67.3285 52.1412 68.2946 52.0063 68.7315 51.5947C69.1759 51.1756 69.3116 50.2178 68.8033 49.6354C67.9514 48.6588 65.6296 49.6365 64.4682 49.9574C60.3662 51.0894 56.3271 52.7577 52.6904 54.5987C44.7693 58.6088 41.3734 62.4695 39.5614 63.4983ZM38.8558 56.6094C37.3191 60.0832 36.0692 64.1378 36.4796 68.64C36.8568 72.7801 38.6351 76.6896 40.6957 78.9736C41.8911 80.2987 45.2186 79.7401 47.2566 79.7488C48.4671 79.7541 49.6902 79.8871 50.197 79.0046C50.8097 77.9376 49.8493 77.1916 49.3761 76.7516C47.9422 75.4178 43.9767 70.8525 43.0549 68.5629C47.8583 68.5459 55.0798 69.0078 59.4263 68.0398C68.1925 66.6489 75.6469 58.9916 77.7555 50.1233C78.0295 48.971 78.5284 45.7856 78.3315 44.6468C78.0276 42.8916 75.4174 43.3984 73.6441 43.3973C66.4294 43.3912 57.3967 42.6263 51.261 45.1321C47.3083 46.746 43.42 49.7669 41.119 52.9897C39.82 54.8092 39.572 55.5632 38.8558 56.6094V56.6094ZM11.2656 53.534C11.3609 54.3644 11.9989 55.1709 12.4577 55.4835C13.691 56.3221 19.3028 55.9741 21.3933 55.9797C23.2335 55.9846 25.7416 56.3554 27.0229 55.3247C28.1915 54.3848 28.252 51.9802 28.0139 50.0542C27.7678 48.0609 26.3036 47.5831 24.1905 47.5892C22.0936 47.5948 19.9952 47.599 17.8983 47.5933C13.7431 47.582 10.4712 46.5895 11.2656 53.534V53.534Z" fill="#438777"/>
<path fill-rule="evenodd" clip-rule="evenodd" d="M59.4939 23.8292L74.8365 23.8261L74.4363 21.1843C73.3002 20.8562 68.4412 21.0365 67.1781 21.0289C65.6557 21.0198 61.1134 20.8433 59.9301 21.1211L59.4939 23.8292V23.8292ZM39.5614 63.4983C41.3734 62.4695 44.7693 58.6088 52.6904 54.5987C56.3271 52.7577 60.3662 51.0894 64.4682 49.9574C65.6296 49.6365 67.9514 48.6588 68.8033 49.6354C69.3116 50.2178 69.1759 51.1756 68.7315 51.5947C68.2946 52.0063 67.3285 52.1412 66.6576 52.3075C59.963 53.9667 53.1772 57.0867 47.6277 60.8942C45.7701 62.1687 42.7533 64.3219 41.4905 65.7521C45.7364 65.9195 50.5047 65.8235 54.7805 65.76C65.4255 65.6013 74.3853 57.9825 75.5611 46.1994C71.1606 46.1152 66.6947 46.2021 62.2851 46.1896C54.1028 46.1666 48.7385 48.1633 43.7053 54.1773C42.0654 56.1362 39.8922 60.2196 39.5614 63.4983V63.4983ZM42.6289 76.9538L45.5497 76.9565L40.2667 69.611C39.9118 68.9677 40.0414 68.7485 39.3929 68.5644L39.3082 69.0127C39.3082 69.0176 39.3774 69.5762 39.3804 69.5928C39.9991 73.2314 41.0109 74.2114 42.6289 76.9538V76.9538ZM14.047 53.1874L25.2336 53.1795L25.2446 50.3853L14.058 50.3936L14.047 53.1874V53.1874ZM23.8352 36.4055L25.5874 36.4127H26.6404L26.6468 35.3594L26.603 34.7093L23.836 34.0467L23.8352 36.4055ZM46.2051 36.415L49.0054 36.404L48.9781 34.7055L46.2312 34.0407L46.2051 36.415V36.415Z" fill="#72B69A"/>
<path fill-rule="evenodd" clip-rule="evenodd" d="M40.6171 31.1603L43.4646 31.9733C43.9654 30.0612 45.7346 30.9513 47.3979 31.3663C48.8459 31.7273 50.6434 31.9914 51.5947 32.7383C52.5547 31.8652 53.2607 31.7673 53.754 30.2854L40.628 27.0312L40.6171 31.1603Z" fill="#FDFEFD"/>
<path fill-rule="evenodd" clip-rule="evenodd" d="M18.2457 31.1717L21.0403 31.9892C21.7304 30.0639 23.2596 30.9313 25.0303 31.3678C26.4828 31.7261 28.2796 31.9911 29.2267 32.7383C30.1826 31.8531 30.8814 31.7798 31.3848 30.2854L18.2597 27.0274L18.2457 31.1717V31.1717Z" fill="#FDFEFD"/>
<path fill-rule="evenodd" clip-rule="evenodd" d="M63.563 18.2238L73.9347 18.2302L72.9033 11.2762L64.1613 11.2649C63.8109 13.6415 63.3328 15.7773 63.563 18.2238V18.2238Z" fill="#FDFEFD"/>
<path fill-rule="evenodd" clip-rule="evenodd" d="M9.85701 81.1495L29.4289 81.1465L29.4346 78.3447L9.86306 78.3477L9.85701 80.0965V81.1495ZM9.85701 64.3669L29.4323 64.3714L29.4346 61.5696L9.86079 61.5764L9.85701 64.3669V64.3669ZM9.85852 69.9636L29.4308 69.9568L29.4346 67.1667L9.85928 67.1618L9.85852 69.9636V69.9636ZM9.86381 75.5482L29.4346 75.5558L29.4342 72.7525L9.85701 72.754L9.85625 74.5043L9.86381 75.5482V75.5482Z" fill="#A4DCB9"/>
<path fill-rule="evenodd" clip-rule="evenodd" d="M64.3737 8.45028L72.9831 8.44876L73.9011 2.85393L64.3737 2.85242V8.45028Z" fill="#FDFEFD"/>
<path fill-rule="evenodd" clip-rule="evenodd" d="M75.6975 30.0503L75.2946 26.6321L67.5719 26.6283C69.038 28.3824 72.4052 30.3976 75.8022 30.6841L75.6975 30.0503V30.0503Z" fill="#FDFEFD"/>
</svg>
