<svg width="84" height="84" viewBox="0 0 84 84" fill="none" xmlns="http://www.w3.org/2000/svg">
<g clip-path="url(#clip0_1_88)">
<path fill-rule="evenodd" clip-rule="evenodd" d="M58.8034 74.1543C58.8034 76.2183 58.9353 78.4672 56.6143 78.3727C54.5424 78.288 54.457 76.1775 54.6406 74.1951L58.8034 74.1543V74.1543ZM21.5932 35.0906C19.7571 35.4168 18.912 36.1009 17.9838 37.1769C17.3938 37.8614 16.159 40.2599 17.1092 41.4656C17.4807 41.9369 18.3855 42.1848 19.0439 41.6901C19.7598 41.1515 19.4657 40.5471 19.7779 39.6325C20.5376 37.409 23.7785 37.1558 24.8738 39.2784C25.2042 39.9186 25.0723 40.8529 25.5111 41.4308C26.4019 42.604 28.3253 41.9996 27.916 39.6642C27.4401 36.9483 24.8803 34.5071 21.5932 35.0906V35.0906ZM76.8295 2.79798C76.314 5.83256 73.4272 8.45744 69.8884 8.39924C66.5367 8.34406 63.6 5.76793 63.1695 2.79798H76.8295ZM60.2105 1.31225C60.2105 11.3722 72.8413 14.5928 77.9989 7.12403C79.3319 5.19345 81.2088 -0.00038147 78.4214 -0.00038147H61.5232C60.7295 -0.00038147 60.2105 0.518548 60.2105 1.31225V1.31225ZM53.1322 19.2121C52.4712 17.7475 51.5947 18.5854 50.8029 17.7732C50.0009 16.9504 50.9261 16.2308 49.4207 15.4783C46.4364 15.0977 47.8023 18.7472 48.8073 19.7703C49.6664 20.6453 53.486 22.1303 53.1322 19.2121V19.2121ZM42.8504 29.5506C41.6194 30.1168 41.7268 31.8497 43.166 32.1494C43.8013 32.2817 61.6411 32.2533 62.0992 32.0776C63.3192 31.6089 63.3354 29.6863 61.8081 29.4331C59.8658 29.1114 54.6913 29.413 52.3914 29.3972C50.7659 29.4153 43.804 29.1908 42.8504 29.5506V29.5506ZM65.0287 83.9996H63.713C62.0432 83.7883 60.3859 82.746 59.2263 80.5542C56.8702 81.8011 54.5779 81.3135 52.7841 79.2858C51.6975 78.0574 51.6794 76.1836 51.6794 74.3199H41.9996C41.9996 76.8457 42.3096 78.065 40.4871 79.8618C38.8891 81.4371 36.6108 81.6094 34.6167 80.5542C33.4201 82.8163 31.7424 83.8273 30.068 83.9996H29.0083C26.7806 83.7781 24.7453 82.1907 24.0922 80.2507C23.4512 78.3477 23.7887 74.2216 23.7887 71.695C22.9807 71.5068 21.0308 70.2943 20.2772 69.7924C18.1554 68.3796 16.2902 66.6924 14.6517 64.7535C13.8713 63.8298 13.0284 62.7458 12.4683 61.6872C9.41028 61.6872 5.72789 61.9929 3.77538 60.8644C2.06552 59.876 -0.000366211 57.7799 -0.000366211 55.1248V48.8704C0.199193 46.6484 0.850406 44.6963 2.719 43.4067C4.86502 41.9255 5.5922 41.9996 9.02288 41.9996C9.14155 40.5781 10.433 37.1834 11.1651 35.7747C12.5575 33.0966 12.8867 32.9949 14.4371 30.6792C14.2636 29.9342 12.4713 27.0629 12.0461 26.3437C10.7482 24.1497 9.84341 23.1001 9.84341 21.1638C9.84341 19.6785 12.2007 18.4286 13.3565 17.9501C17.5846 16.1991 18.0491 16.8979 20.9998 16.8979V13.6169C20.9998 12.3553 22.4115 11.156 23.7887 11.156C28.0331 11.156 30.0801 11.5963 33.4016 14.1759C34.4058 14.956 35.2827 16.1042 35.9634 17.1919C37.2268 19.2106 37.129 20.0806 37.57 20.9998H42.8198C42.7038 19.6029 41.9996 20.259 41.9996 16.2418C41.9996 14.6506 42.4781 13.4668 43.0364 12.3568C47.6837 3.11093 61.6872 6.41385 61.6872 16.8979C61.6872 19.0001 60.9729 20.0035 60.7026 21.1638C64.9032 21.5131 68.6464 23.3182 71.8685 25.2559C75.7935 27.6162 79.9355 32.3399 81.6801 36.6081C83.681 41.5034 83.9996 43.2208 83.9996 48.726C83.9996 53.9951 81.6526 59.2135 79.5054 62.4427C78.3942 64.1136 76.8079 66.0147 75.3441 67.3051C72.954 69.411 72.2551 69.5648 70.0543 71.0389C70.0543 73.2964 70.3253 78.1092 69.8498 79.8576C69.244 82.0842 67.2416 83.7222 65.0287 83.9996V83.9996ZM39.1741 74.1925C39.3169 76.1681 39.2583 78.3957 37.0806 78.3768C34.9138 78.3579 34.9115 76.2875 35.023 74.1963L39.1741 74.1925V74.1925ZM71.0381 50.4707C72.7741 49.9733 73.4665 52.574 71.9361 53.0827C69.9727 53.7351 69.3343 50.9586 71.0381 50.4707ZM70.628 67.2794L70.4398 67.4562C70.4141 67.4782 70.3737 67.5156 70.3446 67.5386C69.6401 68.0995 68.4794 68.4438 67.8675 69.1816C67.1002 70.1065 67.2019 71.5971 67.2023 73.0072C67.2034 75.6782 67.7552 79.3516 66.0499 80.6532C65.0891 81.3865 61.5851 81.9893 61.5995 77.2766C61.6086 74.321 61.6948 71.1874 61.5753 68.2503C61.2635 67.6112 61.0375 67.1562 60.0544 67.228C59.1534 67.2937 58.9459 67.7631 58.8091 68.592L58.7883 71.3873L35.0026 71.3223C35.0026 69.6971 35.4508 66.6418 33.1862 67.2782C31.6849 67.7004 32.2057 70.5441 32.2057 72.0231C32.2057 73.988 32.2326 75.9708 32.2103 77.9335C32.1585 82.4999 26.866 81.8891 26.6105 78.4036C26.4851 76.6862 26.5999 74.4491 26.6056 72.6784C26.6207 68.0485 23.4429 69.4439 21.0565 66.7952C21.8049 66.2687 22.6194 65.921 23.3462 65.3446C25.8648 63.3471 27.7077 59.4527 25.9899 58.334C25.0235 57.7043 24.0382 58.3389 23.8454 59.2717C23.5805 60.5567 23.6066 61.0764 22.8786 61.9264C21.8593 63.1166 20.4329 64.1541 18.5643 64.749C15.2107 61.7288 15.0327 58.9655 12.4566 58.7996C10.574 58.6783 8.20159 58.9818 6.4014 58.7444C4.94212 58.5517 3.33469 57.2848 3.13815 55.9869C4.73841 55.9869 7.31831 56.4011 6.96681 54.3704C6.68486 52.7407 4.40127 53.2634 2.80669 53.1768C2.80669 47.9229 2.11088 44.886 8.53721 44.8014C11.1851 44.7662 11.4527 43.5265 12.0934 41.2921C12.4898 39.9095 13.2919 37.2533 14.1449 36.432C14.4178 35.2728 16.4062 32.8195 17.0687 31.9952C17.5843 31.3534 18.3194 30.7589 18.9381 30.0956C19.3338 29.6708 20.3558 28.8896 21.0081 28.4814C21.0081 29.2671 20.8498 30.8712 21.1877 31.4823C21.5543 32.1456 22.5347 32.406 23.2135 31.9113C24.1795 31.2068 23.8035 27.8759 23.8031 26.4136C23.8023 22.4115 23.9108 18.26 23.7906 14.2768C23.9921 13.9011 23.6591 14.0991 24.1168 13.9975C26.0398 13.9975 27.3906 14.0719 29.0245 14.7776C33.4923 16.707 35.1576 20.5474 34.9909 25.8236C34.9637 27.8748 36.1085 28.3468 37.1433 27.8003C38.1192 27.2848 37.7885 25.1667 37.8081 23.8254L39.2844 23.8016C40.8854 23.7906 42.5514 23.7574 44.146 23.7861C46.4153 23.8265 47.4161 28.0309 55.124 26.0292L56.9295 25.228C58.0056 24.4694 58.1533 24.0227 58.899 23.9422C60.6422 23.7547 65.2188 25.1357 66.8693 25.8255C70.3295 27.2708 73.976 30.1225 76.1972 33.0675C77.6489 34.9916 78.8515 37.0877 79.7106 39.3978C80.8649 42.5019 81.6325 47.6137 80.883 50.8588C80.857 52.6583 80.1725 54.2355 79.7548 55.8179C78.5099 55.0654 78.7578 54.1531 75.3407 53.2834C77.1179 45.6163 65.7755 45.9402 67.3618 52.9243C65.6542 52.676 64.628 50.8789 64.4043 49.0851C64.1378 46.9508 61.1361 46.862 61.7095 50.1815C62.0602 52.2127 63.1646 53.633 64.2905 54.4913C68.9303 58.0259 75.2421 53.6228 77.8613 58.1495C78.4475 59.1628 77.949 59.5808 77.4474 60.3855C76.5834 61.7718 75.4016 63.2288 74.425 64.2546C73.8561 64.8522 71.5521 66.8912 70.628 67.2794V67.2794ZM12.6811 21.6559C13.268 21.0527 15.1661 20.2311 16.1779 19.9548C17.9766 19.4638 19.1906 19.5802 21.0081 19.869L20.9722 25.0738C20.0961 25.629 19.4018 26.0874 18.6388 26.6793C17.65 27.4462 17.0321 28.2183 16.529 28.396L12.6811 21.6559V21.6559ZM50.417 9.96699C54.6346 9.0274 57.9269 12.0597 58.6405 15.3362C59.5616 19.5674 56.521 23.0207 53.1916 23.6572C44.1407 25.3867 41.311 11.9958 50.417 9.96699V9.96699Z" fill="#438777"/>
<path fill-rule="evenodd" clip-rule="evenodd" d="M61.5753 68.2503C61.6948 71.1874 61.6086 74.321 61.5995 77.2766C61.5851 81.9893 65.0891 81.3864 66.0499 80.6532C67.7552 79.3515 67.2034 75.6782 67.2023 73.0072C67.2019 71.5971 67.1002 70.1064 67.8675 69.1816C68.4794 68.4438 69.6401 68.0995 70.3446 67.5386C70.3737 67.5156 70.4141 67.4782 70.4398 67.4562L70.628 67.2794C68.8158 67.446 62.9741 69.0217 61.5753 68.2503V68.2503ZM58.8091 68.592C47.1054 68.742 34.8499 65.2184 26.0685 58.0955C24.2328 56.6063 24.4267 56.8312 22.9746 55.2839C21.6091 53.828 20.2651 52.5279 19.0734 50.6509C17.7706 48.5994 16.7584 47.0101 15.7618 44.4438C15.0932 42.7223 13.8221 38.4276 14.1449 36.432C13.2919 37.2533 12.4898 39.9095 12.0934 41.2921C11.4527 43.5265 11.1851 44.7662 8.5372 44.8014C2.11087 44.886 2.80668 47.9229 2.80668 53.1768C4.40127 53.2634 6.68486 52.7407 6.96681 54.3704C7.31831 56.4011 4.7384 55.9869 3.13815 55.9869C3.33468 57.2848 4.94212 58.5517 6.40139 58.7444C8.20158 58.9818 10.574 58.6783 12.4566 58.7996C15.0327 58.9655 15.2107 61.7287 18.5643 64.749C20.4329 64.1541 21.8593 63.1166 22.8786 61.9264C23.6066 61.0764 23.5805 60.5567 23.8454 59.2717C24.0382 58.3389 25.0235 57.7043 25.9899 58.334C27.7077 59.4527 25.8648 63.3471 23.3461 65.3446C22.6193 65.921 21.8049 66.2687 21.0565 66.7952C23.4429 69.4439 26.6207 68.0485 26.6056 72.6784C26.5999 74.4491 26.485 76.6862 26.6105 78.4036C26.866 81.8891 32.1585 82.4999 32.2103 77.9335C32.2326 75.9708 32.2057 73.988 32.2057 72.023C32.2057 70.5441 31.6849 67.7004 33.1861 67.2782C35.4508 66.6417 35.0026 69.6971 35.0026 71.3223L58.7883 71.3873L58.8091 68.592V68.592ZM12.6811 21.6559L16.529 28.396C17.0321 28.2183 17.65 27.4462 18.6387 26.6793C19.4018 26.0874 20.0961 25.629 20.9722 25.0738L21.0081 19.869C19.1906 19.5802 17.9766 19.4638 16.1779 19.9548C15.1661 20.231 13.268 21.0527 12.6811 21.6559V21.6559ZM42.8504 29.5506C43.804 29.1908 50.7659 29.4153 52.3914 29.3972C52.6927 28.9497 53.4542 28.5146 53.8972 27.981C54.2502 27.5558 54.8595 26.6865 55.124 26.0292C47.4161 28.0309 46.4153 23.8265 44.146 23.7861C42.5514 23.7573 40.8854 23.7906 39.2844 23.8016C39.6575 25.0704 40.0154 26.1464 40.6651 27.0939C40.9618 27.5263 41.3753 28.0543 41.692 28.3619C42.1304 28.7879 42.5817 28.9274 42.8504 29.5506V29.5506ZM76.8295 2.79797H63.1695C63.6 5.76793 66.5367 8.34405 69.8884 8.39923C73.4272 8.45744 76.314 5.83256 76.8295 2.79797ZM23.7906 14.2768C26.1521 14.4023 31.4646 19.1195 33.1359 21.823C34.3967 23.8628 34.5725 25.1947 34.9909 25.8236C35.1575 20.5474 33.4923 16.707 29.0245 14.7776C27.3906 14.0719 26.0398 13.9975 24.1168 13.9975C23.6591 14.0991 23.9921 13.9011 23.7906 14.2768V14.2768ZM39.1741 74.1925L35.023 74.1963C34.9115 76.2875 34.9138 78.3579 37.0806 78.3768C39.2583 78.3957 39.3169 76.1681 39.1741 74.1925V74.1925ZM58.8034 74.1543L54.6406 74.1951C54.457 76.1775 54.5424 78.288 56.6143 78.3727C58.9353 78.4671 58.8034 76.2183 58.8034 74.1543V74.1543Z" fill="#A4DCB9"/>
<path fill-rule="evenodd" clip-rule="evenodd" d="M49.4207 15.4783C50.9261 16.2308 50.0009 16.9504 50.8029 17.7732C51.5947 18.5854 52.4712 17.7475 53.1322 19.2121C54.7102 18.4611 55.1543 16.187 53.7517 14.8252C52.3703 13.4838 49.951 13.9476 49.4207 15.4783V15.4783Z" fill="#72B69A"/>
<path fill-rule="evenodd" clip-rule="evenodd" d="M71.0381 50.4707C69.3343 50.9586 69.9727 53.735 71.9361 53.0827C73.4665 52.574 72.7741 49.9733 71.0381 50.4707ZM21.5932 35.0906C24.8803 34.5071 27.4401 36.9483 27.916 39.6642C28.3253 41.9996 26.4019 42.604 25.5111 41.4308C25.0723 40.8529 25.2042 39.9186 24.8739 39.2784C23.7785 37.1558 20.5376 37.409 19.7779 39.6325C19.4657 40.5471 19.7598 41.1515 19.0439 41.6901C18.3855 42.1848 17.4807 41.9369 17.1092 41.4656C16.159 40.2599 17.3938 37.8614 17.9838 37.1769C18.912 36.1009 19.7571 35.4168 21.5932 35.0906V35.0906ZM14.1449 36.432C13.8221 38.4276 15.0932 42.7223 15.7618 44.4438C16.7584 47.0101 17.7706 48.5994 19.0734 50.651C20.2651 52.5279 21.6091 53.828 22.9746 55.2839C24.4267 56.8312 24.2328 56.6064 26.0686 58.0955C34.8499 65.2184 47.1054 68.742 58.8091 68.592C58.9459 67.7631 59.1534 67.2937 60.0544 67.228C61.0375 67.1561 61.2635 67.6112 61.5753 68.2503C62.9741 69.0217 68.8158 67.446 70.6281 67.2794C71.5521 66.8912 73.8561 64.8521 74.425 64.2546C75.4016 63.2288 76.5835 61.7718 77.4475 60.3855C77.949 59.5808 78.4475 59.1628 77.8613 58.1495C75.2421 53.6228 68.9303 58.0259 64.2905 54.4913C63.1646 53.633 62.0602 52.2126 61.7095 50.1815C61.1361 46.862 64.1378 46.9508 64.4043 49.0851C64.6281 50.8789 65.6542 52.676 67.3618 52.9243C65.7755 45.9401 77.1179 45.6162 75.3407 53.2834C78.7578 54.1531 78.5099 55.0654 79.7549 55.8179C80.1725 54.2355 80.857 52.6583 80.883 50.8588L80.6582 50.4272C80.5682 50.2099 80.5282 50.0379 80.4514 49.8134C79.1067 45.8706 77.0211 41.9887 74.5308 38.6717C74.2829 38.3414 74.1532 38.163 73.9004 37.8255C71.3556 34.4307 66.8746 30.5091 63.2168 28.3294C61.2968 27.1854 59.0782 25.9612 56.9295 25.228L55.1241 26.0292C54.8595 26.6865 54.2502 27.5558 53.8972 27.981C53.4543 28.5146 52.6927 28.9497 52.3915 29.3972C54.6913 29.413 59.8658 29.1114 61.8081 29.4331C63.3355 29.6863 63.3192 31.6089 62.0992 32.0776C61.6411 32.2533 43.8013 32.2817 43.166 32.1494C41.7268 31.8497 41.6194 30.1168 42.8504 29.5506C42.5817 28.9274 42.1304 28.7879 41.692 28.3619C41.3753 28.0543 40.9618 27.5263 40.6651 27.0939C40.0154 26.1464 39.6575 25.0704 39.2844 23.8016L37.8082 23.8254C37.7885 25.1667 38.1192 27.2848 37.1433 27.8003C36.1085 28.3468 34.9637 27.8748 34.9909 25.8236C34.5725 25.1947 34.3967 23.8628 33.1359 21.823C31.4646 19.1195 26.1521 14.4023 23.7906 14.2768C23.9108 18.26 23.8024 22.4115 23.8031 26.4136C23.8035 27.8759 24.1796 31.2068 23.2135 31.9113C22.5347 32.406 21.5543 32.1456 21.1877 31.4823C20.8498 30.8712 21.0082 29.2671 21.0082 28.4814C20.3558 28.8896 19.3338 29.6708 18.9381 30.0956C18.3194 30.7589 17.5843 31.3534 17.0687 31.9952C16.4062 32.8195 14.4178 35.2728 14.1449 36.432V36.432ZM49.4207 15.4783C49.951 13.9476 52.3703 13.4838 53.7517 14.8252C55.1543 16.187 54.7102 18.4611 53.1322 19.2121C53.486 22.1303 49.6664 20.6453 48.8073 19.7703C47.8024 18.7472 46.4364 15.0977 49.4207 15.4783V15.4783ZM50.417 9.96698C41.311 11.9958 44.1407 25.3867 53.1916 23.6572C56.521 23.0207 59.5616 19.5674 58.6405 15.3362C57.927 12.0597 54.6346 9.02739 50.417 9.96698V9.96698Z" fill="#CEF1A8"/>
</g>
<defs>
<clipPath id="clip0_1_88">
<rect width="83.9992" height="83.9992" fill="white"/>
</clipPath>
</defs>
</svg>
