<svg width="84" height="84" viewBox="0 0 84 84" fill="none" xmlns="http://www.w3.org/2000/svg">
<path fill-rule="evenodd" clip-rule="evenodd" d="M64.4768 7.33833H58.3846C57.2821 7.33833 56.4918 7.03824 56.4541 5.94709C56.4129 4.76258 57.3094 4.45266 58.3846 4.45266H64.5192C67.2174 4.45266 67.2461 7.33833 64.4768 7.33833ZM58.4859 28.4644C58.094 30.6905 61.3916 35.1504 62.2745 36.251C63.1158 37.2994 67.1607 40.6673 69.414 40.8911C70.9187 39.3105 71.3254 35.2562 70.0774 32.6744C69.018 30.4823 67.056 28.5351 64.4035 27.8495C62.7394 27.4193 59.7403 27.4632 58.4859 28.4644V28.4644ZM38.2122 41.4395C38.1056 43.8259 41.046 48.2653 42.1285 49.2869C43.2121 50.3093 43.7813 51.0225 45.1975 51.9723C46.0706 52.5581 48.0306 53.7487 49.2915 53.9036C50.1169 51.8351 50.8498 51.2164 50.5557 48.2816C50.355 46.278 49.4476 44.612 48.4278 43.4975C46.1556 41.0147 42.556 39.637 38.2122 41.4395V41.4395ZM18.0707 28.4712C17.7744 29.6874 18.9233 31.6872 19.4237 32.7262C20.1078 34.1461 20.9953 35.2018 21.8404 36.2374C22.842 37.4646 26.4922 40.4617 28.9353 40.9092C29.9611 39.8226 30.5121 37.4366 30.3848 35.5903C30.2283 33.3158 29.3647 31.9797 28.314 30.6077C25.6377 27.1124 19.6929 26.9756 18.0707 28.4712V28.4712ZM36.2733 6.29216C35.7366 3.78293 39.6824 4.45266 42.9849 4.45266C44.3951 4.45266 45.8052 4.45417 47.2157 4.45266C48.7117 4.45115 50.2477 4.1828 50.5478 5.51017C51.1109 7.99937 46.8559 7.33833 43.8312 7.33833C42.4207 7.33833 41.0105 7.33682 39.6004 7.33871C38.2847 7.34022 36.5545 7.60706 36.2733 6.29216V6.29216ZM22.3419 4.44964C24.316 4.45569 26.2987 4.43112 28.2712 4.44662C31.0137 4.46891 31.053 6.96605 29.0071 7.2892L28.5222 7.5583C30.1527 8.01902 32.3441 8.98129 35.0128 9.69865C36.9642 10.2236 40.0082 11.0767 42.0658 11.2301C42.7442 9.80523 44.5262 10.2338 47.0464 10.2338L59.232 10.2335C60.1183 10.2304 61.1785 10.0687 61.7768 10.6813C62.5769 11.5 62.0111 12.3424 61.5621 12.9029C61.6698 13.5345 68.4578 13.0231 69.397 12.9986L69.4061 1.56321L19.313 1.55792C19.638 2.46047 21.5603 3.73077 22.3419 4.44964V4.44964Z" fill="#CEF1A8"/>
<path fill-rule="evenodd" clip-rule="evenodd" d="M63.6276 82.4379H72.2827L72.2922 72.3213H63.6522L63.6276 82.4379ZM21.8615 51.4689C22.6745 50.5244 24.9018 48.6686 25.3909 47.7782L24.7079 47.7717L18.8062 47.7729L18.1111 47.7797C18.4811 48.4097 21.2273 51.1805 21.8615 51.4689V51.4689ZM52.1454 70.8268C51.7659 71.4807 52.0335 78.1652 52.0014 79.5723C50.7273 79.1377 44.2976 75.6412 43.5436 74.9828L43.6135 67.0556C43.0178 67.731 43.358 69.778 43.358 70.7686L43.4169 82.3518L52.0702 82.4376L52.1454 70.8268V70.8268ZM58.2331 82.4474L54.9853 81.0369L54.9732 82.4353L58.2331 82.4474ZM11.6432 82.4379H20.3082V72.3213H20.1388H11.6772L11.6432 82.4379ZM20.3066 59.924C18.912 59.3412 14.9159 55.7284 13.9385 55.2794C14.2099 54.6584 13.9106 55.0477 14.4877 54.6108C15.2258 54.0525 17.8885 52.3699 18.4668 52.3332C18.2733 52.1201 18.4441 52.3022 18.1962 52.0634C18.0571 51.9288 17.9947 51.8759 17.8466 51.7331L14.6358 48.5174C13.9264 47.78 14.095 47.7517 12.6996 47.7664C9.28328 47.8023 5.78608 47.1043 3.89216 49.4434C2.45367 51.219 2.97524 56.2386 2.97524 58.9225C2.97524 62.428 2.97524 65.9335 2.97524 69.439L8.75339 69.4303L8.74734 58.7494C8.74885 57.4946 8.88794 56.516 10.1601 56.4847C12.1841 56.4348 11.6436 59.5431 11.6436 62.1377C11.6436 64.5717 11.6436 67.0054 11.6436 69.439H20.3108L20.3066 59.924V59.924ZM40.4493 67.1656L40.3998 72.844C39.0486 71.9021 35.291 69.2209 34.1737 68.061C35.0389 67.1804 37.6505 65.972 38.4469 65.1583C38.1555 64.5128 36.5261 63.0724 35.9883 62.5346C33.9602 60.5065 34.6288 60.7563 32.493 60.7703C28.9625 60.7926 25.5995 60.1656 23.9951 62.6094C22.7036 64.577 23.1923 69.4515 23.1923 72.1225C23.1923 75.5324 23.1179 79.0269 23.204 82.4266L28.9606 82.4387C29.0207 80.0924 28.9723 77.6897 28.9723 75.3377C28.9723 73.5371 28.2746 69.6212 30.3194 69.4689C32.6113 69.2984 31.8629 73.5243 31.8629 75.1684C31.8629 77.5714 31.8342 79.9918 31.8686 82.3922L40.5135 82.4406C40.5812 80.434 40.8053 67.9975 40.4493 67.1656V67.1656ZM41.9694 64.4213C42.5873 64.108 45.2942 61.4083 45.6068 60.7741H38.3312C38.7186 61.5583 39.4447 62.0648 40.0668 62.6869C40.6874 63.3075 41.1946 64.0282 41.9694 64.4213ZM58.0203 58.1065C57.4836 57.5199 56.8672 57.14 56.1721 56.5693C55.7242 56.202 54.6278 55.4347 54.3897 55.0303C54.8179 54.6206 58.2134 52.3582 58.899 52.3468L56.4212 49.8864C55.9586 49.4222 55.6108 49.0855 55.1547 48.6134C54.5711 48.0098 54.624 47.7759 53.4542 47.7729C53.4478 50.8445 53.3613 53.3193 51.3419 55.9412L49.6902 57.8876C51.8343 57.8876 56.16 57.6578 58.0203 58.1065V58.1065ZM62.0776 51.4689C62.7118 51.1805 65.4576 48.4097 65.8277 47.7816L65.1541 47.771L59.2309 47.7729L58.5479 47.7774C59.037 48.6686 61.2646 50.5244 62.0776 51.4689V51.4689ZM72.3269 66.6157C70.0418 66.017 65.7683 63.0259 63.6393 61.9253L63.6306 69.436H72.3039L72.3269 66.6157V66.6157ZM78.3141 69.4496C77.695 68.8449 76.114 68.5221 75.193 67.8924L75.1843 69.3823L78.3141 69.4496Z" fill="#72B69A"/>
<path fill-rule="evenodd" clip-rule="evenodd" d="M64.4768 7.33834C67.2461 7.33834 67.2174 4.45267 64.5192 4.45267H58.3846C57.3094 4.45267 56.4129 4.76259 56.454 5.94709C56.4918 7.03824 57.2821 7.33834 58.3846 7.33834H64.4768ZM63.6522 72.3213H72.2922L72.2827 82.4379H63.6276L63.6522 72.3213ZM11.6772 72.3213H20.1388H20.3082V82.4379H11.6432L11.6772 72.3213ZM80.9178 72.3224C81.151 74.6215 80.4571 76.6908 78.0189 76.6428C76.8601 76.6197 76.0819 75.9734 75.6552 75.3237C75.1143 74.4998 75.1461 73.482 75.2069 72.3284L80.9178 72.3224V72.3224ZM8.73184 72.3602C9.02627 77.7668 4.72101 77.1371 3.47717 75.4197C2.90192 74.6249 2.91137 73.4056 3.02135 72.3194L8.73184 72.3602ZM52.1454 70.8268L52.0702 82.4375L43.4169 82.3517L43.358 70.7686C43.358 69.778 43.0178 67.731 43.6135 67.0556C43.7888 66.4819 45.7826 64.7123 46.3476 64.1469C49.8421 60.6527 49.0636 60.7563 51.4458 60.7718C54.3258 60.7907 57.2035 60.3704 59.0358 61.6585C61.409 63.3267 60.7449 67.7083 60.7449 71.2762C60.7449 74.9741 60.8134 78.737 60.7355 82.433L58.2331 82.4474L54.9732 82.4353L54.9853 81.0369C54.8814 78.4675 54.9664 75.7262 54.9672 73.1376C54.9676 71.8598 55.2174 70.3468 54.3356 69.7289C53.3182 69.0161 52.2724 69.716 52.1454 70.8268V70.8268ZM38.4469 65.1583C39.0493 65.4584 40.2127 66.6021 40.4493 67.1656C40.8053 67.9975 40.5812 80.434 40.5135 82.4406L31.8686 82.3922C31.8342 79.9918 31.8629 77.5714 31.8629 75.1684C31.8629 73.5243 32.6113 69.2984 30.3194 69.4689C28.2746 69.6212 28.9723 73.5371 28.9723 75.3377C28.9723 77.6897 29.0207 80.0923 28.9606 82.4387L23.204 82.4266C23.1179 79.0269 23.1923 75.5324 23.1923 72.1225C23.1923 69.4515 22.7036 64.577 23.9951 62.6094C25.5995 60.1655 28.9625 60.7926 32.493 60.7703C34.6288 60.7563 33.9602 60.5065 35.9883 62.5346C36.5261 63.0724 38.1555 64.5128 38.4469 65.1583V65.1583ZM41.9694 64.4213C41.1946 64.0282 40.6874 63.3075 40.0668 62.6869C39.4447 62.0648 38.7186 61.5583 38.3312 60.7741H45.6068C45.2942 61.4083 42.5873 64.108 41.9694 64.4213ZM58.899 52.3468C60.028 53.5782 60.7128 53.7661 60.7578 54.8466C60.8164 56.2579 60.7449 57.8683 60.7449 59.3038C59.7211 58.8529 59.3745 58.419 58.0203 58.1065C56.16 57.6578 51.8343 57.8876 49.6902 57.8876L51.3419 55.9412C53.3613 53.3193 53.4478 50.8445 53.4542 47.7729C54.624 47.7759 54.5711 48.0098 55.1546 48.6134C55.6108 49.0855 55.9586 49.4222 56.4212 49.8864L58.899 52.3468V52.3468ZM23.1938 59.3038C23.1938 52.9448 22.1004 55.3164 27.7701 49.6312C29.2558 48.1414 29.2165 47.777 30.4838 47.7736C30.5129 50.4189 30.39 51.4405 31.375 53.7766C32.3751 56.1498 33.2357 56.606 34.2474 57.8869C32.1479 57.8869 30.017 57.851 27.9216 57.8869C25.2559 57.9322 25.0503 58.4867 23.1938 59.3038V59.3038ZM72.3269 66.6157L72.3039 69.436H63.6306L63.6393 61.9253C63.5906 59.6957 63.6249 57.4235 63.6189 55.1887C63.6147 53.7585 64.1 53.7313 64.8238 53.0079C71.0162 46.8189 68.3546 47.718 75.9882 47.771C81.7799 47.811 80.9624 52.6352 80.9624 56.2148C80.9624 60.6221 80.9624 65.0294 80.9624 69.4364L78.3141 69.4496L75.1843 69.3823L75.1929 67.8924C75.1461 65.935 75.1854 63.9315 75.1854 61.9688C75.1854 60.3795 75.6601 57.1457 74.3811 56.6109C71.9165 55.5806 72.2944 58.9429 72.2948 60.4456C72.2948 62.437 72.2041 64.6526 72.3269 66.6157V66.6157ZM18.4668 52.3332C18.8636 52.7785 19.1898 53.0959 19.6263 53.5124C20.2201 54.0786 20.3233 54.0472 20.3203 55.1887C20.3157 56.7662 20.3146 58.3465 20.3066 59.924L20.3108 69.439H11.6436C11.6436 67.0054 11.6436 64.5717 11.6436 62.1377C11.6436 59.5431 12.1841 56.4348 10.1601 56.4847C8.88794 56.516 8.74885 57.4946 8.74734 58.7494L8.75339 69.4303L2.97524 69.439C2.97524 65.9335 2.97524 62.428 2.97524 58.9225C2.97524 56.2386 2.45367 51.219 3.89216 49.4434C5.78608 47.1043 9.28328 47.8023 12.6996 47.7664C14.095 47.7517 13.9264 47.78 14.6358 48.5174L17.8466 51.733C17.9947 51.8759 18.0571 51.9288 18.1962 52.0634C18.4441 52.3022 18.2733 52.1201 18.4668 52.3332V52.3332ZM38.2122 41.4395C42.556 39.637 46.1556 41.0147 48.4278 43.4975C49.4476 44.612 50.355 46.278 50.5557 48.2816C50.8498 51.2164 50.1169 51.8351 49.2915 53.9036C48.5752 54.9986 47.7449 55.7949 46.6541 56.4975C44.2624 58.0384 41.125 58.3548 38.5013 57.1457C37.4695 56.6706 36.0624 55.7201 35.5434 55.0295C31.7877 50.0349 32.6974 44.7613 38.2122 41.4395ZM62.0776 51.4689C61.2646 50.5244 59.037 48.6686 58.5479 47.7774L59.2309 47.7729L65.1541 47.771L65.8277 47.7815C65.4576 48.4097 62.7118 51.1805 62.0776 51.4689V51.4689ZM21.8615 51.4689C21.2273 51.1805 18.4811 48.4097 18.1111 47.7797L18.8062 47.7729L24.7079 47.7717L25.3909 47.7781C24.9018 48.6686 22.6745 50.5244 21.8615 51.4689V51.4689ZM58.4859 28.4644C59.7403 27.4632 62.7394 27.4193 64.4035 27.8495C67.056 28.5351 69.018 30.4823 70.0774 32.6744C71.3254 35.2562 70.9187 39.3105 69.414 40.8911C68.4333 42.9101 65.4637 44.6442 62.945 44.8486C53.1009 45.6469 50.0545 32.2462 58.4859 28.4644V28.4644ZM18.0707 28.4712C19.6928 26.9756 25.6377 27.1124 28.314 30.6078C29.3647 31.9797 30.2283 33.3158 30.3848 35.5903C30.5121 37.4366 29.9611 39.8226 28.9353 40.9092C28.5989 41.78 27.1654 43.0609 26.2851 43.5783C22.2765 45.9345 17.9063 44.9635 15.2156 41.8432C11.105 37.0768 13.4275 30.415 18.0707 28.4712V28.4712ZM50.6003 35.7381C50.6003 37.8599 50.9563 39.7334 51.7799 41.3276C52.1114 41.9698 52.5479 42.6425 52.9652 43.1883C53.4512 43.8236 54.0745 44.2522 54.4925 44.8766H52.6311C52.3423 43.6377 50.9378 41.856 50.0447 40.8627C49.2828 40.015 47.023 38.7205 45.8396 38.2987C43.3187 37.4007 40.7376 37.4151 38.2243 38.2545C36.9702 38.6733 34.8151 39.9277 33.9757 40.7751C33.6661 41.0869 33.7689 41.0491 33.532 41.3469C32.9031 42.1368 31.6687 43.3289 31.3081 44.8766H29.4463C30.0971 43.9049 30.8209 43.8202 32.1007 41.4384C33.5414 38.7575 33.7293 35.1228 32.6169 32.2292C32.3868 31.6305 32.2084 31.2703 31.9313 30.7147C30.8481 28.5415 28.1204 25.9737 25.7235 25.4151C25.9657 25.053 26.0598 25.028 26.3478 24.686L30.4947 19.6944C31.378 18.6535 30.731 18.9846 34.862 18.9846C35.5344 18.9846 37.0666 23.1405 37.403 23.8893C37.6501 24.4392 37.9015 25.0405 38.1899 25.6411C38.7587 26.8248 39.2519 27.995 39.7667 29.1413C40.2387 30.192 40.6182 31.945 41.9694 31.945C43.2775 31.945 43.6581 30.3341 44.1211 29.2588C44.6253 28.0868 45.1567 26.8585 45.6926 25.7537C46.2285 24.6486 46.7596 23.4206 47.2641 22.2486C49.0473 18.1077 47.7044 18.9846 53.9849 18.9846C54.5805 18.9846 57.4118 22.7649 58.0029 23.4282C58.3869 23.8594 59.1054 24.6062 59.2309 25.0768C55.5757 25.9283 53.0578 28.4319 51.4998 31.7303C51.1056 32.5655 50.6003 34.5732 50.6003 35.7381V35.7381ZM19.313 1.55793L69.4061 1.56322L69.397 12.9986L69.4065 16.0086C67.5919 16.0086 63.5747 15.789 62.0152 16.0422C60.014 16.3676 60.8111 20.1687 60.723 22.0214L56.62 17.1984C55.5379 15.8668 55.5829 16.0025 53.3087 16.0082C51.8411 16.0116 50.3717 16.0127 48.9041 16.0063C46.8208 15.9969 46.8068 16.0029 46.066 17.6617C45.3759 19.2064 42.3776 26.242 41.9694 26.7118C41.5155 26.1891 39.7115 21.8037 39.2784 20.8252C36.7083 15.0153 38.1075 16.0282 31.471 16.0052C29.7301 15.9991 29.4694 16.2694 28.6348 17.3257L24.9986 21.6775C24.6985 21.9549 25.0791 21.6941 24.638 21.9443C24.638 17.2959 25.2514 16.0256 22.5169 16.0037C19.8607 15.9821 17.1904 16.0086 14.5319 16.0086L14.544 1.56359L19.313 1.55793V1.55793ZM11.6772 1.38482V16.4459C11.6772 17.2358 12.2842 17.8583 12.7264 18.2736C13.2695 18.7843 13.8901 18.9846 14.8929 18.9846H21.662V24.5692C19.9506 24.9676 19.632 24.5488 16.9916 25.6524C12.723 27.4367 10.1545 31.7926 10.1545 36.5843C10.1545 39.0217 11.2649 41.5192 12.5911 43.2858C13.0696 43.923 13.6263 44.2492 14.0466 44.8766C12.2415 44.8766 10.4364 44.877 8.63131 44.8766C6.34998 44.8758 5.40246 44.9341 3.88573 45.7157C1.11496 47.1428 0.000378132 49.951 0.000378132 52.9996V72.7994C0.000378132 74.9163 0.40441 76.3064 1.40107 77.4909C3.18728 79.6139 6.18633 80.1853 8.63131 78.8916C8.63131 81.086 7.94117 85.3221 10.1545 85.3221H73.7847C75.9976 85.3221 75.3078 81.086 75.3078 78.8916C78.7623 80.7194 83.9384 78.9925 83.9384 72.7994C83.9384 69.2704 84.1803 52.814 83.6954 50.5349C83.4153 49.2189 82.6651 47.9063 81.7859 47.029C79.9298 45.1782 78.3141 44.8747 75.4772 44.8766C73.6154 44.8777 71.754 44.8766 69.8925 44.8766C70.5471 43.8988 71.2501 43.8399 72.5469 41.4387C76.2297 34.6167 71.3586 25.3814 63.631 24.7381V18.9846C66.0454 18.9846 70.0082 19.4052 71.2123 18.2736C71.6546 17.8583 72.2615 17.2358 72.2615 16.4459V1.38482C72.2615 -0.144752 71.0835 -1.32283 69.5539 -1.32283H14.3849C12.8557 -1.32283 11.6772 -0.144752 11.6772 1.38482V1.38482ZM20.1347 10.2845C18.9094 10.5275 18.4535 11.8881 19.3126 12.703C19.9427 13.3002 21.7863 13.1195 22.8465 13.1195C24.3186 13.1191 29.7373 13.3081 30.7714 13.0409C31.8954 12.7506 32.1804 11.311 31.3894 10.6091C30.61 9.91711 20.9322 10.1265 20.1347 10.2845V10.2845ZM29.0071 7.2892C31.053 6.96605 31.0137 4.46892 28.2712 4.44662C26.2987 4.43112 24.316 4.45569 22.3419 4.44964C21.1589 4.46098 19.564 4.17941 19.056 5.2218C18.3817 6.60548 19.5587 7.31566 20.8059 7.344C23.478 7.40523 26.3335 7.3663 29.0071 7.2892V7.2892ZM36.2733 6.29216C36.5545 7.60706 38.2847 7.34022 39.6004 7.33871C41.0105 7.33682 42.4207 7.33834 43.8312 7.33834C46.8559 7.33834 51.1109 7.99937 50.5478 5.51018C50.2477 4.18281 48.7117 4.45115 47.2157 4.45267C45.8052 4.45418 44.3951 4.45267 42.9849 4.45267C39.6824 4.45267 35.7366 3.78293 36.2733 6.29216V6.29216ZM42.0658 11.2301C41.7536 13.3674 43.6309 13.1221 45.354 13.1195C47.1591 13.1169 48.9645 13.1195 50.7693 13.1195C53.0408 13.1195 59.89 13.3822 61.5621 12.9029C62.0111 12.3424 62.5769 11.5 61.7768 10.6813C61.1785 10.0687 60.1183 10.2304 59.232 10.2335L47.0464 10.2338C44.5262 10.2338 42.7442 9.80523 42.0658 11.2301Z" fill="#438777"/>
<path fill-rule="evenodd" clip-rule="evenodd" d="M8.73184 72.3602L3.02135 72.3194C2.91137 73.4056 2.90192 74.6249 3.47717 75.4197C4.72101 77.1371 9.02627 77.7668 8.73184 72.3602ZM69.414 40.8911C67.1607 40.6673 63.1158 37.2994 62.2745 36.251C61.3916 35.1504 58.094 30.6905 58.4859 28.4644C50.0545 32.2462 53.1009 45.6469 62.945 44.8486C65.4637 44.6442 68.4333 42.9101 69.414 40.8911ZM20.1347 10.2845C20.9322 10.1265 30.61 9.9171 31.3894 10.6091C32.1804 11.311 31.8954 12.7506 30.7714 13.0409C29.7373 13.3081 24.3186 13.1191 22.8465 13.1195C21.7863 13.1195 19.9427 13.3002 19.3126 12.703C18.4535 11.8881 18.9094 10.5275 20.1347 10.2845V10.2845ZM69.397 12.9986C68.4578 13.0231 61.6698 13.5345 61.5621 12.9029C59.89 13.3822 53.0408 13.1195 50.7693 13.1195C48.9645 13.1195 47.1591 13.1169 45.354 13.1195C43.6309 13.1221 41.7536 13.3674 42.0658 11.2301C40.0082 11.0767 36.9642 10.2236 35.0128 9.69865C32.3441 8.98129 30.1527 8.01902 28.5222 7.5583L29.0071 7.2892C26.3335 7.3663 23.478 7.40523 20.8059 7.344C19.5587 7.31565 18.3817 6.60548 19.056 5.2218C19.564 4.1794 21.1589 4.46098 22.3419 4.44964C21.5603 3.73077 19.638 2.46047 19.313 1.55792L14.544 1.56359L14.5319 16.0086C17.1904 16.0086 19.8607 15.9821 22.5169 16.0037C25.2514 16.0256 24.638 17.2959 24.638 21.9443C25.0791 21.6941 24.6985 21.9549 24.9986 21.6775L28.6348 17.3257C29.4694 16.2694 29.7301 15.9991 31.471 16.0052C38.1075 16.0282 36.7083 15.0153 39.2784 20.8252C39.7115 21.8037 41.5155 26.1891 41.9694 26.7118C42.3776 26.242 45.3759 19.2064 46.066 17.6617C46.8068 16.0029 46.8208 15.9969 48.9041 16.0063C50.3717 16.0127 51.8411 16.0116 53.3087 16.0082C55.5829 16.0025 55.5379 15.8668 56.62 17.1984L60.723 22.0214C60.8111 20.1687 60.014 16.3676 62.0152 16.0422C63.5747 15.789 67.5919 16.0086 69.4065 16.0086L69.397 12.9986V12.9986ZM23.1938 59.3038C25.0503 58.4867 25.2559 57.9322 27.9216 57.8869C30.017 57.851 32.1479 57.8869 34.2474 57.8869C33.2357 56.606 32.3751 56.1498 31.375 53.7766C30.39 51.4405 30.5129 50.4189 30.4838 47.7736C29.2165 47.777 29.2558 48.1414 27.7701 49.6312C22.1004 55.3164 23.1938 52.9448 23.1938 59.3038V59.3038ZM28.9353 40.9092C26.4922 40.4617 22.842 37.4646 21.8404 36.2374C20.9953 35.2018 20.1078 34.1461 19.4237 32.7262C18.9233 31.6872 17.7744 29.6874 18.0707 28.4712C13.4275 30.415 11.105 37.0768 15.2156 41.8432C17.9063 44.9635 22.2765 45.9345 26.2851 43.5783C27.1654 43.0609 28.5989 41.78 28.9353 40.9092ZM49.2915 53.9036C48.0306 53.7487 46.0706 52.5581 45.1975 51.9723C43.7813 51.0225 43.2121 50.3093 42.1285 49.2869C41.046 48.2653 38.1056 43.8259 38.2122 41.4395C32.6975 44.7613 31.7877 50.0349 35.5434 55.0295C36.0624 55.7201 37.4695 56.6706 38.5013 57.1457C41.125 58.3548 44.2624 58.0384 46.6541 56.4975C47.7449 55.7949 48.5752 54.9986 49.2915 53.9036ZM40.4493 67.1656C40.2127 66.6021 39.0493 65.4584 38.4469 65.1583C37.6505 65.972 35.0389 67.1803 34.1737 68.061C35.291 69.2209 39.0486 71.9021 40.3998 72.844L40.4493 67.1656ZM43.6135 67.0556L43.5436 74.9828C44.2976 75.6412 50.7273 79.1376 52.0014 79.5723C52.0335 78.1652 51.7659 71.4807 52.1454 70.8268C52.2724 69.716 53.3182 69.0161 54.3356 69.7289C55.2174 70.3468 54.9676 71.8598 54.9672 73.1376C54.9664 75.7262 54.8814 78.4675 54.9853 81.0369L58.2331 82.4474L60.7355 82.433C60.8134 78.737 60.7449 74.9741 60.7449 71.2762C60.7449 67.7083 61.409 63.3267 59.0358 61.6585C57.2035 60.3704 54.3258 60.7907 51.4458 60.7718C49.0636 60.7563 49.8421 60.6527 46.3476 64.1469C45.7826 64.7123 43.7888 66.4819 43.6135 67.0556V67.0556ZM20.3066 59.924C20.3146 58.3465 20.3157 56.7662 20.3203 55.1887C20.3233 54.0472 20.2201 54.0786 19.6263 53.5124C19.1898 53.0959 18.8636 52.7785 18.4668 52.3332C17.8885 52.3699 15.2258 54.0525 14.4877 54.6108C13.9106 55.0477 14.2099 54.6584 13.9385 55.2794C14.9159 55.7284 18.912 59.3412 20.3066 59.924V59.924ZM58.0203 58.1065C59.3745 58.419 59.7211 58.8529 60.7449 59.3038C60.7449 57.8683 60.8164 56.2579 60.7578 54.8466C60.7128 53.7661 60.028 53.5782 58.899 52.3468C58.2134 52.3582 54.8179 54.6206 54.3897 55.0303C54.6278 55.4347 55.7242 56.202 56.1721 56.5693C56.8671 57.14 57.4836 57.5199 58.0203 58.1065ZM63.6393 61.9253C65.7683 63.0259 70.0418 66.017 72.3269 66.6157C72.2041 64.6526 72.2948 62.437 72.2948 60.4456C72.2944 58.9429 71.9165 55.5806 74.3811 56.6109C75.6601 57.1457 75.1854 60.3795 75.1854 61.9688C75.1854 63.9315 75.1461 65.935 75.1929 67.8924C76.114 68.5221 77.695 68.8449 78.3141 69.4496L80.9624 69.4364C80.9624 65.0294 80.9624 60.6221 80.9624 56.2148C80.9624 52.6352 81.7799 47.811 75.9882 47.771C68.3546 47.718 71.0162 46.8189 64.8238 53.0079C64.1 53.7313 63.6147 53.7585 63.6189 55.1887C63.6249 57.4235 63.5906 59.6957 63.6393 61.9253V61.9253ZM80.9178 72.3224L75.2069 72.3284C75.1461 73.482 75.1143 74.4998 75.6552 75.3237C76.0819 75.9734 76.8601 76.6197 78.0189 76.6428C80.4571 76.6908 81.151 74.6215 80.9178 72.3224V72.3224Z" fill="#A4DCB9"/>
</svg>
