<svg width="84" height="84" viewBox="0 0 84 84" fill="none" xmlns="http://www.w3.org/2000/svg">
<path fill-rule="evenodd" clip-rule="evenodd" d="M41.1953 5.72448C43.6826 5.22104 45.7311 7.00611 46.1038 9.03761C46.566 11.5578 44.8573 13.6029 42.7854 13.9775C37.2964 14.9696 35.7207 6.83225 41.1953 5.72448V5.72448ZM38.6963 63.1117C39.205 62.8762 41.9407 62.8501 42.5405 63.0992C43.6403 63.5558 43.6241 65.1587 42.5352 65.6232C41.9569 65.8696 39.1975 65.8677 38.6181 65.6243C37.4956 65.153 37.4717 63.6794 38.6963 63.1117V63.1117ZM21.9205 63.1087C22.4092 62.8796 25.1905 62.8535 25.7665 63.0969C26.8494 63.5543 26.8637 65.1526 25.7609 65.6232C25.2306 65.8492 22.3756 65.8503 21.8438 65.6243C20.7235 65.1489 20.6899 63.6854 21.9205 63.1087ZM32.1857 60.1746C20.8978 60.1194 20.9839 61.4226 21.0074 56.6755C21.052 47.6723 19.7042 49.0023 27.9965 48.9899C31.2582 48.9849 34.5199 48.9872 37.7817 48.9895C45.0837 48.9944 46.4836 52.5385 49.42 56.9204C52.108 60.9313 48.1429 60.1746 44.7708 60.1678C41.5121 60.161 38.242 60.2022 34.9852 60.1693C35.006 62.2632 34.9791 64.3657 34.9833 66.4603C34.9867 68.0992 35.585 71.3333 33.5879 71.3356C31.5908 71.3378 32.183 68.1112 32.1902 66.4603C32.1993 64.3669 32.1959 62.2681 32.1857 60.1746V60.1746ZM15.4617 49.1131C18.9929 48.5356 18.2169 50.394 18.2132 57.2001C18.2116 59.7532 18.26 60.1792 15.5924 60.1712C13.7284 60.1659 11.8632 60.1674 9.99911 60.1686C7.7484 60.1701 6.74154 60.172 7.08321 57.6166C7.30582 55.9514 7.80094 54.6883 8.58028 53.5117C10.0607 51.2772 12.0283 49.6747 15.4617 49.1131ZM18.2116 46.196C12.8436 46.2376 9.7542 47.5986 6.99439 50.3505C4.33776 52.9999 2.81385 56.3138 2.83955 61.5636C4.65599 61.5727 5.62506 61.5364 6.85303 62.4491C9.01984 64.0603 8.85769 67.6638 6.84207 69.0678C5.48824 70.0108 4.77127 69.939 2.83766 69.9575C2.98393 72.4093 4.55772 74.0527 7.02878 74.1335C7.61914 73.2193 7.72157 71.0079 9.82979 69.2648C11.1575 68.1672 13.0216 67.1444 15.4159 67.1562C19.7185 67.1766 23.0751 70.3015 23.6557 74.1385L38.1309 74.1521C42.9343 74.1339 41.9055 74.4926 42.429 72.8568C45.0168 64.7701 57.2935 65.4932 58.6019 74.1385L67.1316 74.1445L67.132 67.1637C61.3361 67.1354 61.6195 64.6435 61.5368 60.1784C60.3749 60.0355 54.2891 58.913 53.6799 58.4285C51.0852 56.366 48.9437 46.1987 37.4321 46.1892L18.2116 46.196V46.196ZM41.975 22.0055C44.4975 20.2099 47.7694 16.3877 48.6905 12.2015C49.8198 7.06961 46.6673 2.88454 41.975 2.86186C37.2393 2.83918 34.1888 7.09909 35.2566 12.2026C35.7116 14.3777 36.757 16.3079 37.8641 17.8001C38.9469 19.2597 40.571 21.024 41.975 22.0055Z" fill="#A4DCB9"/>
<path fill-rule="evenodd" clip-rule="evenodd" d="M19.6403 25.3395C17.7203 25.5935 16.388 26.1112 15.0255 26.9348C14.476 27.2666 13.7136 27.9167 13.2729 28.3192C12.7053 28.8382 12.3814 29.9172 13.2231 30.5639C14.5584 31.5893 15.2164 29.9316 17.1897 28.9247C20.332 27.3218 24.0291 27.933 26.5818 30.1372C28.8911 32.1313 30.0272 29.5 28.7437 28.3185C26.7666 26.499 23.4837 24.8304 19.6403 25.3395ZM14.0421 75.8959C14.3486 77.4709 17.1606 77.1931 16.7868 75.2436C16.4591 73.5356 13.6475 73.8686 14.0421 75.8959ZM48.9883 75.8959C49.2949 77.4709 52.1068 77.1931 51.733 75.2436C51.4054 73.5356 48.5938 73.8686 48.9883 75.8959ZM11.9308 53.91C12.5031 53.0385 13.9211 52.1458 15.4159 51.9507L15.4311 57.2901L9.99647 57.3732C10.2285 55.9 11.0544 54.4758 11.9308 53.91V53.91ZM15.4617 49.1131C12.0283 49.6747 10.0607 51.2772 8.58028 53.5117C7.80094 54.6883 7.30582 55.9514 7.08321 57.6166C6.74154 60.172 7.74841 60.1701 9.99912 60.1686C11.8632 60.1674 13.7284 60.1659 15.5924 60.1712C18.26 60.1792 18.2117 59.7532 18.2132 57.2001C18.2169 50.394 18.9929 48.5356 15.4617 49.1131V49.1131ZM36.3194 51.772C39.1846 51.8423 40.5853 51.6015 42.7211 52.9546C44.1558 53.8636 45.1105 55.2964 46.0645 56.9911C46.252 57.1733 46.0709 56.5538 46.3253 57.3729L34.9863 57.3713L34.9844 51.7837L36.3194 51.772V51.772ZM24.3836 51.7901L32.1921 51.7803L32.1887 57.0248C31.996 57.5539 32.5829 57.2954 31.6191 57.3804L23.8023 57.3755L23.8016 51.7795L24.3836 51.7901V51.7901ZM32.1857 60.1746C32.1959 62.2681 32.1993 64.3669 32.1902 66.4603C32.1831 68.1112 31.5908 71.3378 33.5879 71.3356C35.585 71.3333 34.9867 68.0992 34.9833 66.4603C34.9791 64.3657 35.006 62.2632 34.9852 60.1693C38.242 60.2022 41.5121 60.161 44.7708 60.1678C48.1429 60.1746 52.108 60.9313 49.42 56.9204C46.4836 52.5385 45.0837 48.9944 37.7817 48.9895C34.5199 48.9872 31.2582 48.9849 27.9965 48.9899C19.7042 49.0023 21.052 47.6723 21.0074 56.6755C20.9839 61.4226 20.8978 60.1194 32.1857 60.1746V60.1746ZM21.9205 63.1087C20.6899 63.6854 20.7235 65.1489 21.8438 65.6243C22.3756 65.8503 25.2306 65.8492 25.7609 65.6232C26.8637 65.1526 26.8494 63.5543 25.7665 63.0969C25.1905 62.8535 22.4092 62.8796 21.9205 63.1087ZM38.6963 63.1117C37.4717 63.6794 37.4956 65.153 38.6181 65.6243C39.1975 65.8677 41.9569 65.8696 42.5352 65.6232C43.6241 65.1587 43.6403 63.5558 42.5405 63.0992C41.9407 62.8501 39.205 62.8762 38.6963 63.1117ZM55.8523 76.5951C55.254 79.2896 52.6979 81.7262 49.2461 81.0123C42.0472 79.5239 44.2734 68.5712 51.4791 70.0777C54.0004 70.605 56.5905 73.2703 55.8523 76.5951ZM20.9061 76.5951C19.2529 84.0397 8.48693 81.4885 9.94658 74.4287C10.4874 71.8133 13.1274 69.366 16.5328 70.0777C19.0541 70.605 21.6442 73.2703 20.9061 76.5951ZM5.26148 66.6085C4.99804 66.9067 4.94702 67.0295 4.38463 67.1267C3.96888 67.1985 3.27836 67.1603 2.83427 67.1607L2.83124 64.8775C2.93027 64.221 2.6177 64.5366 3.12 64.3548C3.93713 64.371 4.70778 64.2935 5.20327 64.7928C5.69688 65.2902 5.72485 66.0442 5.26148 66.6085ZM65.7623 61.0458C67.2325 61.3444 67.1146 62.4253 67.1478 63.9197C67.039 64.7157 67.3247 64.1662 66.7869 64.3608C63.9069 64.3623 64.3393 63.3959 64.3393 60.7691L65.7623 61.0458V61.0458ZM18.2117 46.196L37.4321 46.1892C48.9437 46.1987 51.0852 56.366 53.6799 58.4285C54.2891 58.913 60.3749 60.0355 61.5368 60.1784C61.6195 64.6435 61.3361 67.1354 67.132 67.1637L67.1316 74.1445L58.6019 74.1385C57.2935 65.4932 45.0168 64.7701 42.429 72.8568C41.9055 74.4926 42.9343 74.1339 38.1309 74.1521L23.6557 74.1385C23.0751 70.3015 19.7185 67.1766 15.4159 67.1562C13.0216 67.1444 11.1575 68.1672 9.82979 69.2648C7.72157 71.0079 7.61915 73.2193 7.02878 74.1335C4.55773 74.0527 2.98393 72.4093 2.83767 69.9575C4.77127 69.939 5.48825 70.0108 6.84208 69.0678C8.8577 67.6638 9.01984 64.0603 6.85304 62.4491C5.62507 61.5364 4.656 61.5727 2.83956 61.5636C2.81386 56.3138 4.33776 52.9999 6.99439 50.3505C9.7542 47.5986 12.8436 46.2376 18.2117 46.196V46.196ZM58.5993 76.9689C68.6449 76.4058 69.9481 78.8515 69.9311 73.6244C69.9258 71.9947 69.9273 70.362 69.9315 68.7318C69.9568 58.972 70.7236 59.1284 61.8497 57.4091L55.7556 56.1948C53.5782 55.471 51.1491 43.3655 37.0828 43.3965C30.5601 43.4113 24.0355 43.3977 17.5128 43.3928C12.1497 43.389 7.45096 45.3521 4.06148 49.3349C0.28762 53.7698 0.0253206 57.6057 0.038171 64.7131C0.0468639 69.428 -0.991751 76.3457 7.17808 76.9701C7.78393 80.7398 11.1409 83.9528 15.4148 83.9335C19.748 83.9138 23.0355 80.764 23.653 76.9448L42.1243 76.9701C42.7302 80.7398 46.0872 83.9528 50.3611 83.9335C54.6943 83.9138 57.9817 80.764 58.5993 76.9689V76.9689ZM41.506 28.1681C40.5645 28.6314 40.5691 29.0559 40.5706 30.2846C40.5717 31.1807 40.5056 32.3021 40.6968 33.1593C41.0434 34.7146 42.0896 35.7823 43.5598 36.2154C45.1166 36.6739 53.0135 36.4018 55.2548 36.4067C57.7636 36.412 58.7724 36.0412 58.755 38.849C58.7433 40.7615 58.5139 42.7313 59.359 44.1819C60.9849 46.9723 65.348 46.1851 69.2334 46.19C71.2135 46.1926 73.1939 46.1945 75.174 46.1904C82.4825 46.1752 81.0996 44.4533 81.1166 58.0732C81.1189 60.0537 81.1098 62.0341 81.1136 64.0142C81.117 65.8927 81.6446 68.3271 79.7144 68.5448C78.1954 68.716 75.0871 68.3044 73.8293 68.6169C72.4146 68.9681 71.9977 71.3526 74.8154 71.3594C78.9112 71.3688 82.6227 72.0163 83.7226 68.372C84.1576 66.9305 83.9172 58.8159 83.9112 56.6755C83.9032 53.9618 84.3522 47.2547 83.2985 45.4072C81.7119 42.6263 77.2879 43.3928 73.4268 43.3939C71.4467 43.3946 69.4658 43.4014 67.4861 43.3965C66.1421 43.3935 62.7609 43.7492 61.9737 42.9672C60.4883 41.4924 63.3668 35.8704 59.0687 33.9844C57.5048 33.298 49.8724 33.6042 47.5665 33.611C45.4961 33.6166 43.4423 34.1601 43.3678 31.875C43.3432 31.1289 43.4869 29.6175 43.2741 28.9871C43.0609 28.354 42.2918 27.781 41.506 28.1681V28.1681ZM58.2784 19.7798C57.0727 20.3826 57.0493 21.7629 58.1972 22.2788C58.7323 22.5196 61.5636 22.5188 62.0969 22.2784C63.1362 21.8094 63.1438 20.2443 62.1007 19.7764C61.5379 19.5239 58.7596 19.5394 58.2784 19.7798ZM58.2803 14.1895C56.7772 14.9314 57.2421 16.6564 58.7524 16.8249C60.0714 16.9727 72.8855 16.8646 73.2794 16.6866C74.6033 16.0879 74.1725 14.2197 72.7245 14.0527C71.4236 13.9022 58.6549 14.0043 58.2803 14.1895ZM62.1917 5.64699L72.726 5.65531L72.7302 7.05865L72.7294 8.44951L60.1493 8.45065L60.1455 5.65266L62.1917 5.64699V5.64699ZM58.2746 3.00208C56.8679 3.68731 57.3683 5.90438 57.349 8.80214C57.3282 11.8919 58.7528 11.246 61.5451 11.2433C63.3056 11.2418 73.8966 11.4527 74.6774 11.0967C76.0048 10.4916 75.5202 6.92901 75.527 5.30041C75.5399 2.21443 74.1317 2.84977 71.3303 2.8577C69.6113 2.86262 58.9372 2.67893 58.2746 3.00208V3.00208ZM41.492 8.59692C43.1762 7.80284 44.0145 10.4538 42.5231 11.1077C40.9988 11.7763 39.6004 9.48851 41.492 8.59692ZM41.1953 5.72447C35.7207 6.83225 37.2964 14.9696 42.7854 13.9775C44.8573 13.6029 46.566 11.5578 46.1038 9.03761C45.7311 7.00611 43.6826 5.22104 41.1953 5.72447V5.72447ZM41.975 22.0055C40.571 21.024 38.9469 19.2597 37.8641 17.8001C36.757 16.3079 35.7116 14.3777 35.2566 12.2026C34.1888 7.09909 37.2393 2.83918 41.975 2.86186C46.6673 2.88454 49.8198 7.06961 48.6905 12.2014C47.7694 16.3877 44.4975 20.2099 41.975 22.0055ZM40.8831 0.140222C30.4014 1.48422 28.9584 14.8819 39.3264 23.5083C42.0238 25.7526 41.8541 25.7295 44.4283 23.6644C51.357 18.1058 55.2748 6.98495 47.4421 1.75484C45.541 0.485671 43.3005 -0.169699 40.8831 0.140222V0.140222ZM20.5364 36.5541C18.5858 37.5266 20.1116 39.6968 21.5524 39.0644C23.2237 38.3316 22.0524 35.7986 20.5364 36.5541ZM20.2186 30.9574C18.7185 31.1705 15.75 32.4646 16.9036 34.2146C18.1682 36.1315 19.4498 33.0127 21.8827 33.7807C22.8125 34.0743 23.2671 34.9988 24.2653 34.7853C25.0919 34.6084 25.7129 33.5803 25.1002 32.6725C24.3129 31.5054 22.173 30.6792 20.2186 30.9574V30.9574Z" fill="#438777"/>
<path fill-rule="evenodd" clip-rule="evenodd" d="M31.6191 57.3804C32.5829 57.2954 31.996 57.5539 32.1887 57.0248L32.1921 51.7803L24.3836 51.7901C24.6973 52.2093 25.5613 52.7403 26.098 53.1583C26.7439 53.6617 27.377 54.0922 27.998 54.5787C28.6775 55.1112 31.2465 56.8721 31.6191 57.3804V57.3804Z" fill="#FEFEFE"/>
<path fill-rule="evenodd" clip-rule="evenodd" d="M72.7302 7.05864C70.012 7.05675 64.9077 7.47137 62.9764 6.32239C62.4952 6.03666 62.4227 5.95691 62.1917 5.64699L60.1455 5.65266L60.1493 8.45064L72.7295 8.44951L72.7302 7.05864V7.05864ZM49.6906 72.875C53.1791 71.8639 54.5696 77.3015 51.1192 78.2215C47.5903 79.1626 46.0192 73.9389 49.6906 72.875ZM55.8523 76.5951C56.5905 73.2703 54.0004 70.605 51.4791 70.0777C44.2734 68.5712 42.0472 79.5239 49.2461 81.0123C52.698 81.7262 55.254 79.2896 55.8523 76.5951V76.5951ZM14.7443 72.875C18.2328 71.8639 19.6229 77.3015 16.173 78.2215C12.644 79.1626 11.0729 73.9389 14.7443 72.875ZM20.9061 76.5951C21.6442 73.2703 19.0541 70.605 16.5328 70.0777C13.1274 69.366 10.4874 71.8133 9.94658 74.4287C8.48693 81.4885 19.2529 84.0397 20.9061 76.5951ZM15.4311 57.2901C14.0466 56.3758 13.1887 55.0507 11.9308 53.91C11.0544 54.4758 10.2285 55.9 9.99647 57.3732L15.4311 57.2901V57.2901ZM31.6192 57.3804C31.2465 56.8721 28.6775 55.1112 27.998 54.5786C27.377 54.0922 26.7439 53.6617 26.098 53.1583C25.5613 52.7403 24.6973 52.2093 24.3836 51.7901L23.8016 51.7795L23.8023 57.3755L31.6192 57.3804V57.3804ZM46.0645 56.9911C45.0875 56.9038 40.3283 53.98 38.6903 53.1511C38.259 52.933 37.8954 52.7596 37.4313 52.4859L36.3194 51.772L34.9844 51.7837L34.9863 57.3713L46.3253 57.3728C46.0709 56.5538 46.252 57.1733 46.0645 56.9911V56.9911ZM67.1478 63.9197C66.1274 63.377 65.726 62.5697 65.7623 61.0458L64.3393 60.7691C64.3393 63.3959 63.9069 64.3623 66.7869 64.3608C67.3247 64.1662 67.039 64.7157 67.1478 63.9197V63.9197Z" fill="#CEF1A8"/>
<path fill-rule="evenodd" clip-rule="evenodd" d="M14.0421 75.8959C13.6475 73.8686 16.4591 73.5356 16.7868 75.2436C17.1606 77.1931 14.3486 77.4709 14.0421 75.8959ZM14.7443 72.875C11.0729 73.9389 12.644 79.1626 16.173 78.2215C19.6229 77.3015 18.2328 71.8639 14.7443 72.875V72.875Z" fill="#72B69A"/>
<path fill-rule="evenodd" clip-rule="evenodd" d="M48.9883 75.8959C48.5938 73.8686 51.4053 73.5356 51.733 75.2436C52.1068 77.1931 49.2949 77.4709 48.9883 75.8959ZM49.6906 72.875C46.0191 73.9389 47.5903 79.1626 51.1192 78.2215C54.5696 77.3015 53.1791 71.8639 49.6906 72.875V72.875Z" fill="#47BD99"/>
<path fill-rule="evenodd" clip-rule="evenodd" d="M46.0645 56.9911C45.1105 55.2964 44.1558 53.8636 42.7211 52.9546C40.5853 51.6015 39.1846 51.8423 36.3194 51.772L37.4313 52.4859C37.8954 52.7596 38.259 52.933 38.6903 53.1511C40.3283 53.98 45.0875 56.9038 46.0645 56.9911Z" fill="#FCFDFD"/>
<path fill-rule="evenodd" clip-rule="evenodd" d="M72.7302 7.05864L72.726 5.6553L62.1917 5.64699C62.4227 5.95691 62.4952 6.03666 62.9764 6.32239C64.9077 7.47137 70.012 7.05675 72.7302 7.05864Z" fill="#FCFDFD"/>
<path fill-rule="evenodd" clip-rule="evenodd" d="M11.9308 53.9101C13.1887 55.0507 14.0466 56.3758 15.4311 57.2901L15.4159 51.9507C13.9211 52.1458 12.5031 53.0385 11.9308 53.9101V53.9101Z" fill="#FCFDFD"/>
<path fill-rule="evenodd" clip-rule="evenodd" d="M41.492 8.59691C39.6004 9.48851 40.9988 11.7763 42.5231 11.1077C44.0145 10.4538 43.1762 7.80284 41.492 8.59691V8.59691Z" fill="#FCFDFD"/>
<path fill-rule="evenodd" clip-rule="evenodd" d="M5.26148 66.6085C5.72485 66.0442 5.69688 65.2902 5.20327 64.7928C4.70777 64.2935 3.93713 64.371 3.12 64.3548C3.50626 65.4414 4.16957 66.4532 5.26148 66.6085V66.6085Z" fill="#FCFDFD"/>
<path fill-rule="evenodd" clip-rule="evenodd" d="M5.26148 66.6085C4.16957 66.4532 3.50627 65.4414 3.12 64.3548C2.6177 64.5366 2.93027 64.221 2.83124 64.8775L2.83427 67.1607C3.27836 67.1603 3.96888 67.1985 4.38463 67.1267C4.94702 67.0295 4.99805 66.9067 5.26148 66.6085V66.6085Z" fill="#C0EF9A"/>
<path fill-rule="evenodd" clip-rule="evenodd" d="M67.1478 63.9197C67.1146 62.4253 67.2325 61.3444 65.7623 61.0458C65.726 62.5697 66.1274 63.377 67.1478 63.9197Z" fill="#FEFEFE"/>
</svg>
