<svg width="84" height="84" viewBox="0 0 84 84" fill="none" xmlns="http://www.w3.org/2000/svg">
<g clip-path="url(#clip0_1_21)">
<path fill-rule="evenodd" clip-rule="evenodd" d="M31.7382 33.7553C32.335 33.462 45.7841 33.5921 48.319 33.5974C50.8006 33.6023 50.9095 35.6451 49.5625 36.2581C48.9158 36.5526 35.4641 36.418 32.8997 36.4123C30.5601 36.4074 30.144 34.5388 31.7382 33.7553V33.7553ZM29.4021 40.6091C32.671 40.6103 35.9403 40.6046 39.2092 40.6095C40.842 40.6118 42.477 40.614 44.1097 40.6076C45.5418 40.6023 47.5941 40.3181 47.5869 42.0064C47.5797 43.6985 45.5452 43.4083 44.1097 43.4052C42.477 43.4018 40.842 43.4014 39.2092 43.4067C35.9414 43.4173 32.6721 43.4022 29.404 43.406L29.7861 47.6039L52.3351 47.6073C54.1096 47.6122 58.3786 46.9039 58.7565 48.7226C59.2626 51.1586 54.7098 50.4026 53.0351 50.4079C45.9417 50.4302 37.358 50.5833 30.5526 50.3943C31.0057 52.1061 31.7839 53.2188 32.3611 54.6127L45.3347 54.6077C46.636 54.6108 48.2562 54.3655 48.8077 55.3474C50.3584 58.1087 44.3475 57.4027 42.7094 57.408C39.9432 57.4167 37.1543 57.3664 34.3914 57.4205C35.0971 58.2168 35.3269 58.6329 36.3069 59.6081C36.7313 60.0302 36.98 60.1939 37.4381 60.5817C37.9956 61.053 38.2775 61.1119 38.6336 61.6176C40.3045 61.5942 43.2608 61.443 44.8067 61.6176C46.5744 61.8172 46.9637 64.402 44.2549 64.4039C45.9893 65.4629 49.3141 65.7294 51.6336 65.7955C51.5308 64.8128 49.1588 63.5248 51.2307 61.0333C51.8105 60.336 51.4825 61.141 51.6321 60.203C51.8169 59.0472 51.8986 57.5429 54.2797 57.2636C55.6207 57.1064 54.8731 57.1253 55.8187 56.5092C56.8826 55.8161 58.0951 55.8497 59.1008 56.5863C60.1553 57.3585 59.1515 57.0826 60.7 57.2776C61.9397 57.4337 62.8551 58.2142 63.0988 59.4191C63.3887 60.8512 62.8437 60.0763 63.6839 61.1146C64.4859 62.106 64.6681 63.343 63.97 64.4833C63.5482 65.1734 63.2538 65.0336 63.1899 65.797L72.8134 65.8156L72.7529 46.7894C71.7196 47.7385 70.3294 48.0559 70.0044 46.1548C69.5082 46.0929 69.5826 46.2784 69.281 46.6927L68.7065 47.3333C68.694 47.3046 68.6453 47.3839 68.5788 47.4119L66.3625 37.3852C65.7422 39.761 65.2743 42.3636 64.7505 44.7851C64.4935 45.9742 64.3911 47.5873 63.0111 47.5846C61.7684 47.5824 61.4517 46.0826 60.7347 45.6181L60.2109 47.4055L56.4639 42.5178C54.4732 42.7952 52.4844 43.7405 50.7931 43.056L49.0624 43.355C50.0073 41.2479 55.3637 31.8962 55.7465 30.7922L29.4021 30.8047V40.6091V40.6091Z" fill="#FDFEFD"/>
<path fill-rule="evenodd" clip-rule="evenodd" d="M13.6573 81.2137C19.1369 81.1877 24.6285 81.2001 30.1085 81.2149C41.046 81.2447 51.9889 81.2149 62.9269 81.2149C61.7594 78.7767 61.5693 78.9422 61.6139 75.6079L2.81083 75.614C2.75868 82.3616 6.98003 81.2455 13.6573 81.2137V81.2137ZM28.004 24.8561V28.0108L56.9718 28.0127C56.6699 26.4238 55.4124 27.4624 53.955 26.558C52.9346 25.9245 52.5003 25.2185 52.1979 23.8012H28.0029L28.004 24.8561V24.8561Z" fill="#72B69A"/>
<path fill-rule="evenodd" clip-rule="evenodd" d="M29.4198 21.0025L51.1053 21.0055C50.5999 20.1929 49.3988 19.9506 49.0983 18.8118C48.7249 17.3945 49.6297 16.5562 50.4797 16.1072C50.7545 15.0822 50.9991 14.8218 51.4696 14.177C51.5376 12.8954 50.7591 12.8848 50.8052 11.1972L29.4021 11.2033L29.4198 21.0025V21.0025Z" fill="#FDFEFD"/>
<path fill-rule="evenodd" clip-rule="evenodd" d="M65.986 17.6708C68.29 16.4005 70.679 13.2185 72.1954 14.2617C74.3512 15.7455 70.4228 17.9153 68.3229 19.4903C65.3492 21.7202 65.7441 21.5894 62.4469 18.2445C61.4944 17.2789 61.1637 15.3944 62.9994 15.4201C64.0996 15.4352 65.1836 17.1866 65.986 17.6708V17.6708ZM66.0771 9.96396C61.9642 10.7686 59.6179 14.369 60.3458 18.0835C60.9921 21.3808 64.3022 24.5212 68.4756 23.6765C71.7781 23.0079 74.939 19.7526 74.0833 15.5403C73.4045 12.1984 70.2459 9.14796 66.0771 9.96396V9.96396Z" fill="#A4DCB9"/>
<path fill-rule="evenodd" clip-rule="evenodd" d="M60.7234 4.59174C60.1818 6.22639 60.1349 8.08667 60.2748 9.83962C62.1566 8.52925 63.3619 7.0182 67.2113 7.00875C68.668 7.00497 70.0747 7.34437 71.2422 7.87502C76.8797 10.4379 78.7162 17.5098 75.2651 22.4141C74.8396 23.0185 74.5232 23.2554 74.1759 23.7392C75.9496 23.8813 77.766 23.8413 79.4222 23.2823C79.0488 21.964 78.1247 21.2617 79.0156 19.3372C80.0568 17.0876 81.5728 17.9781 81.151 16.5298C80.9265 15.7591 79.4128 15.891 78.8171 13.7681C78.5957 12.98 78.6478 12.0809 78.9517 11.3911C79.3032 10.594 79.8285 10.3215 79.07 9.65102C78.491 9.13965 76.7853 9.48472 75.6654 8.35124C74.5432 7.21549 74.8728 5.51848 74.3694 4.93795C73.3266 3.76705 73.0424 5.83332 70.3952 5.23313C67.7915 4.64277 67.7 1.0541 66.1912 3.70809C65.8001 4.39558 65.5922 4.54601 64.7932 4.94135C62.7787 5.93839 62.1067 4.95004 60.7234 4.59174V4.59174Z" fill="#FDFEFD"/>
<path fill-rule="evenodd" clip-rule="evenodd" d="M65.986 17.6708C65.1836 17.1866 64.0996 15.4352 62.9994 15.4201C61.1637 15.3944 61.4944 17.2789 62.4469 18.2445C65.7441 21.5894 65.3492 21.7202 68.3229 19.4903C70.4228 17.9153 74.3512 15.7455 72.1954 14.2617C70.6791 13.2185 68.29 16.4005 65.986 17.6708V17.6708ZM54.8799 60.0608C56.304 60.0495 56.6789 59.458 57.4106 58.9051C57.4496 58.9312 57.5055 58.9289 57.5229 58.9901L58.5385 59.7823C59.1621 60.1062 59.6084 60.1013 60.342 60.0771C60.3806 62.3955 60.9275 61.8901 61.5156 63.2296C60.796 63.6302 61.0004 63.6862 60.5083 64.258L60.2959 65.9373C58.6413 65.9856 58.3196 66.2241 57.4106 67.0726L56.2961 66.2271C55.666 65.8946 55.2291 65.9131 54.4755 65.9441C54.4592 65.1719 54.508 64.8117 54.1822 64.142C53.8292 63.4167 53.5945 63.4295 53.2989 62.7829C53.7524 62.5311 54.0654 62.2749 54.2918 61.6426C54.4554 61.1853 54.373 61.1327 54.4543 60.7257C54.638 59.8076 54.1516 60.2037 54.8799 60.0608V60.0608ZM51.6336 65.7955C51.713 68.8263 54.0881 68.668 54.7574 68.8135C55.6894 69.0164 56.945 71.1061 59.2063 69.3596C60.3882 68.4465 59.5597 68.9953 61.0012 68.6974C62.366 68.4159 63.1499 67.3202 63.1899 65.797C63.2538 65.0336 63.5482 65.1734 63.97 64.4833C64.6681 63.343 64.4859 62.106 63.6839 61.1146C62.8437 60.0763 63.3887 60.8511 63.0988 59.4191C62.8551 58.2142 61.9397 57.4337 60.7 57.2776C59.1515 57.0826 60.1553 57.3585 59.1008 56.5863C58.0951 55.8497 56.8826 55.8161 55.8187 56.5092C54.8731 57.1253 55.6207 57.1064 54.2797 57.2636C51.8986 57.5429 51.8169 59.0472 51.6321 60.203C51.4825 61.141 51.8105 60.336 51.2307 61.0333C49.1588 63.5248 51.5308 64.8128 51.6336 65.7955V65.7955ZM66.0771 9.96397C70.2459 9.14797 73.4045 12.1984 74.0833 15.5403C74.939 19.7526 71.7781 23.0079 68.4756 23.6765C64.3022 24.5212 60.9921 21.3808 60.3458 18.0835C59.6179 14.369 61.9642 10.7686 66.0771 9.96397V9.96397ZM60.2748 9.83962L59.9369 10.2248C59.8787 10.2898 59.7959 10.3691 59.687 10.5026C56.4873 14.4223 56.6196 20.0349 60.3156 23.701C61.8932 25.2654 64.083 26.5996 67.2121 26.6041C69.4023 26.6071 71.1262 25.9635 72.7918 24.8409C73.3395 24.4721 73.7446 23.9815 74.1759 23.7392C74.5232 23.2554 74.8396 23.0185 75.2651 22.4141C78.7162 17.5098 76.8797 10.4379 71.2422 7.87502C70.0747 7.34438 68.668 7.00498 67.2113 7.00876C63.3619 7.0182 62.1566 8.52926 60.2748 9.83962V9.83962ZM31.7382 33.7553C30.144 34.5388 30.5601 36.4074 32.8997 36.4123C35.4641 36.418 48.9158 36.5526 49.5625 36.2581C50.9095 35.6451 50.8006 33.6023 48.319 33.5974C45.7841 33.5921 32.335 33.462 31.7382 33.7553V33.7553ZM29.404 43.406C32.6721 43.4022 35.9414 43.4173 39.2092 43.4067C40.842 43.4014 42.477 43.4018 44.1097 43.4052C45.5452 43.4083 47.5797 43.6985 47.5869 42.0064C47.5941 40.3181 45.5418 40.6023 44.1097 40.6076C42.477 40.614 40.842 40.6118 39.2092 40.6095C35.9403 40.6046 32.671 40.6103 29.4021 40.6091C28.0048 40.6084 26.6037 40.6171 25.2076 40.6076C23.8998 40.5989 22.419 40.5343 22.4205 42.0068C22.422 43.4661 23.8995 43.4196 25.2072 43.4086C26.6045 43.3965 28.0063 43.406 29.404 43.406ZM30.5526 50.3943C37.358 50.5833 45.9417 50.4302 53.0351 50.4079C54.7098 50.4026 59.2626 51.1586 58.7565 48.7226C58.3786 46.9039 54.1096 47.6122 52.3351 47.6073L29.7861 47.6039C26.5519 47.6391 21.9413 46.9213 22.4523 49.2945C22.7505 50.6801 24.5015 50.4087 25.9083 50.406C27.4507 50.4034 29.0135 50.4363 30.5526 50.3943V50.3943ZM34.3914 57.4205C37.1543 57.3664 39.9432 57.4167 42.7094 57.408C44.3475 57.4027 50.3584 58.1087 48.8077 55.3474C48.2562 54.3655 46.636 54.6108 45.3347 54.6077L32.3611 54.6127C31.4071 54.6077 23.9796 54.494 23.3741 54.6988C22.6541 54.9426 22.1261 55.838 22.6035 56.6729C23.2637 57.8275 26.4491 57.411 28.0086 57.4106C30.1236 57.4095 32.2813 57.3664 34.3914 57.4205V57.4205ZM44.2549 64.4039C46.9637 64.402 46.5744 61.8172 44.8067 61.6176C43.2608 61.443 40.3045 61.5942 38.6336 61.6176L23.509 61.6607C22.0086 62.0296 22.0123 64.1945 23.8118 64.4009C25.3255 64.5747 41.2781 64.4115 44.2549 64.4039V64.4039ZM2.81083 75.614L61.6139 75.6079C61.5693 78.9422 61.7594 78.7767 62.9269 81.2149C51.9889 81.2149 41.046 81.2447 30.1085 81.2149C24.6285 81.2001 19.1369 81.1877 13.6573 81.2137C6.98003 81.2455 2.75867 82.3616 2.81083 75.614V75.614ZM75.7463 32.3051C76.2459 33.0539 77.8911 35.8866 77.9958 36.6459C78.5616 37.1501 79.5776 39.1684 79.8214 40.0059C78.5121 39.778 75.7243 38.7791 74.7402 39.5558C73.9019 40.2176 73.0148 41.9864 72.1727 42.8202C71.5971 41.0222 71.2169 38.5784 70.8034 36.6705C70.6031 35.7453 69.7349 32.8418 70.1167 32.1441C71.1371 30.2774 71.6009 31.4672 73.0787 31.7556C73.9793 31.9317 74.6521 31.6343 75.4216 31.5228L75.7463 32.3051V32.3051ZM63.0319 39.6616L62.2424 42.8107L60.2642 40.2028C60.13 40.0339 60.0884 40.0018 59.9494 39.8154L59.6719 39.3853C57.9398 39.0841 56.4382 39.685 54.6028 40.0029C54.9728 38.736 58.0218 33.6866 59.0185 31.536C59.777 31.6108 60.4486 31.9329 61.3466 31.7601C62.4094 31.556 62.5024 31.0186 63.5361 31.1652C63.9133 31.4842 64.5774 32.2507 64.422 32.7383L63.0319 39.6616V39.6616ZM28.0029 23.8012H52.1979C52.5003 25.2185 52.9345 25.9245 53.955 26.558C55.4124 27.4624 56.6699 26.4238 56.9718 28.0127L28.004 28.0108V24.8561L28.0029 23.8012V23.8012ZM51.4696 14.177C50.9991 14.8218 50.7545 15.0822 50.4797 16.1072C50.3187 17.3325 50.5395 18.2041 51.1567 19.0329C51.8604 19.9778 52.7225 19.7843 52.9402 21.0074L51.1053 21.0055L29.4198 21.0025C24.4717 21.0285 25.1924 20.9378 25.2079 25.906C25.2231 30.8016 24.4294 30.8073 29.4021 30.8047L55.7465 30.7922C56.1146 30.8459 56.0107 30.8493 56.1573 30.9815L51.3766 39.8169C50.6744 41.0623 50.1539 41.6054 50.7931 43.056C52.4844 43.7405 54.4732 42.7952 56.4639 42.5178L58.2588 42.2064L60.7347 45.6181C61.4517 46.0826 61.7684 47.5824 63.0111 47.5846C64.3911 47.5873 64.4935 45.9742 64.7505 44.7851C65.2743 42.3636 65.7422 39.761 66.3625 37.3852L67.1361 33.6714L70.0044 46.1548C70.3294 48.0559 71.7196 47.7385 72.7529 46.7894L72.8134 65.8156C72.8115 69.1381 72.799 72.463 72.8107 75.7852C72.8213 78.7907 71.7109 81.4371 68.2753 81.1941C64.4217 80.922 64.4001 77.3477 64.4152 75.0784C64.4288 72.9842 63.8018 72.7929 61.7877 72.8054L16.8064 72.8111C16.9421 54.336 16.5827 35.4697 16.8045 17.1496C16.8937 9.7731 24.3821 11.2464 29.4021 11.2033L50.8052 11.1972L52.34 11.2044C52.5679 11.9255 52.978 12.2914 52.8408 13.1301C52.4768 13.5488 51.8982 13.8996 51.4696 14.177V14.177ZM60.7234 4.59175C62.1067 4.95005 62.7787 5.93839 64.7932 4.94135C65.5922 4.54602 65.8001 4.39559 66.1912 3.70809C67.7 1.05411 67.7915 4.64277 70.3952 5.23313C73.0424 5.83332 73.3266 3.76705 74.3694 4.93795C74.8728 5.51849 74.5432 7.2155 75.6654 8.35124C76.7853 9.48472 78.491 9.13965 79.07 9.65102C79.8285 10.3215 79.3032 10.594 78.9517 11.3911C78.6478 12.0809 78.5957 12.98 78.8171 13.7681C79.4128 15.891 80.9265 15.7591 81.151 16.5298C81.5728 17.9781 80.0568 17.0876 79.0156 19.3372C78.1247 21.2617 79.0488 21.964 79.4222 23.2823C79.2276 24.5518 78.6678 24.09 77.5136 24.3141C74.2148 24.9551 75.0338 28.3521 74.2118 28.9104C73.0813 29.3435 72.2736 27.6325 69.9817 28.5037C67.6585 29.387 68.4488 30.7759 67.2094 30.7835C66.2241 30.7895 66.3073 29.1277 64.3087 28.4583C62.0878 27.7141 61.3107 29.3348 60.2109 28.9111C59.3888 28.043 60.1421 26.6971 58.7327 25.2839C57.3513 23.8991 55.9374 24.6009 55.1014 23.8057C54.6777 22.6949 56.3788 21.8502 55.5137 19.5768C55.268 18.9313 54.861 18.3284 54.4426 18.0261C53.8809 17.6202 53.1141 17.5695 53.2418 16.6658C53.3688 15.7659 54.997 15.8948 55.5984 13.7654C56.3467 11.1152 54.1516 10.6927 55.3478 9.64989C56.16 8.95937 57.6745 9.71376 58.9822 8.05568C60.1531 6.57109 59.2498 4.80567 60.7234 4.59175V4.59175ZM81.5633 20.4805C82.543 19.3935 83.9883 19.2246 83.9992 16.8064C84.0117 14.1366 81.8355 13.7945 81.5773 13.0647C81.2447 12.1236 83.1938 10.5853 81.6899 8.27074C80.3796 6.25474 78.0975 6.89575 77.6126 6.23357C77.2275 5.70709 77.7059 3.33505 75.5248 2.19326C73.1327 0.94148 71.6625 2.98583 70.715 2.29984C70.2232 1.94381 70.2009 1.2223 69.2341 0.606614C65.797 -1.58135 63.8082 2.39433 63.3611 2.50394C62.0232 2.43591 61.7159 1.36819 59.65 1.90224C58.5369 2.18986 57.6416 3.05802 57.2568 4.05279C56.4767 6.0703 57.9235 6.32995 55.3145 6.63647C53.5589 6.84246 53.4225 7.7794 52.5101 8.4C43.9487 8.48882 35.3499 8.39244 26.7832 8.4068C22.8556 8.41323 19.1758 7.96309 16.3646 10.9361C13.7605 13.6902 14.0198 16.7524 14.0092 21.3558C13.9691 38.5054 14.005 55.6611 14.0096 72.8118C10.9757 72.8111 7.94041 72.8005 4.90696 72.8103C0.297068 72.8251 -0.0634987 71.9856 0.00717848 76.842C0.0479974 79.6747 1.38255 81.6491 3.0085 82.7573C5.34198 84.3477 7.54393 84.0019 10.6821 84.0087L64.4111 84.0121C67.262 84.011 70.1711 84.3496 72.2899 82.9637C73.9 81.9107 75.4337 80.1267 75.5966 77.3582C75.7606 74.5746 75.62 71.2702 75.611 68.4344L75.5981 43.7427C75.6155 42.429 75.7066 43.0337 76.1182 42.1841C78.178 42.3719 82.2244 43.6736 83.1594 43.2627C83.7785 42.9906 84.172 42.3088 83.8753 41.4599C83.5816 40.6178 82.4122 38.6135 81.9436 37.7696L78.068 30.6214C77.5672 29.771 77.3201 29.6659 77.3662 28.5305C77.4905 25.4691 80.4091 28.3858 81.9235 24.8636C82.9281 22.5271 81.3626 21.8906 81.5633 20.4805V20.4805Z" fill="#438777"/>
<path fill-rule="evenodd" clip-rule="evenodd" d="M59.6719 39.3853C60.6387 39.4647 62.0625 39.4828 63.0319 39.6616L64.422 32.7383C61.5145 32.1071 62.0103 33.5316 60.0941 33.1635C59.2263 34.2406 57.8396 36.474 58.5471 38.0655C58.8038 38.643 59.1972 38.9049 59.6719 39.3853Z" fill="#FDFEFD"/>
<path fill-rule="evenodd" clip-rule="evenodd" d="M77.9958 36.6459C77.8911 35.8866 76.2459 33.0539 75.7463 32.3051C75.1491 32.6944 74.8101 33.3388 73.539 33.227C72.3961 33.1264 72.596 32.4548 70.8023 32.4722C71.02 34.0739 71.4939 37.4812 72.8462 38.3036C73.7431 38.8494 74.9998 38.6343 75.7002 38.0678C76.7856 37.1894 76.0244 37.1463 77.9958 36.6459V36.6459Z" fill="#FDFEFD"/>
<path fill-rule="evenodd" clip-rule="evenodd" d="M54.8799 60.0609C54.8013 62.0871 58.0671 65.0298 60.5083 64.258C61.0004 63.6862 60.796 63.6302 61.5156 63.2296C60.9275 61.8901 60.3806 62.3955 60.342 60.0771C59.6084 60.1013 59.1621 60.1062 58.5385 59.7823L57.5229 58.9901C57.5055 58.9289 57.4496 58.9312 57.4106 58.9051C56.6789 59.458 56.304 60.0495 54.8799 60.0609V60.0609Z" fill="#FDFEFD"/>
<path fill-rule="evenodd" clip-rule="evenodd" d="M51.4696 14.177C51.8982 13.8996 52.4768 13.5489 52.8408 13.1301C52.978 12.2914 52.5679 11.9255 52.34 11.2044L50.8052 11.1972C50.7591 12.8848 51.5376 12.8954 51.4696 14.177ZM63.0319 39.6616C62.0625 39.4828 60.6387 39.4647 59.6719 39.3853C59.1972 38.9049 58.8038 38.643 58.5471 38.0655C57.8396 36.474 59.2263 34.2406 60.0941 33.1635C62.0103 33.5316 61.5145 32.1071 64.422 32.7383C64.5774 32.2507 63.9133 31.4842 63.5361 31.1652C62.5024 31.0186 62.4094 31.556 61.3466 31.7601C60.4486 31.9329 59.777 31.6108 59.0185 31.536C58.0218 33.6866 54.9728 38.736 54.6028 40.0029C56.4382 39.685 57.9398 39.0841 59.6719 39.3853L59.9494 39.8154C60.0884 40.0018 60.13 40.0339 60.2642 40.2028L62.2424 42.8107L63.0319 39.6616V39.6616ZM51.1053 21.0055L52.9402 21.0074C52.7225 19.7843 51.8604 19.9778 51.1567 19.0329C50.5395 18.2041 50.3187 17.3325 50.4797 16.1072C49.6297 16.5562 48.7249 17.3945 49.0983 18.8118C49.3988 19.9506 50.5999 20.1929 51.1053 21.0055V21.0055ZM50.7931 43.056C50.154 41.6054 50.6744 41.0623 51.3766 39.8169L56.1574 30.9815C56.0107 30.8493 56.1146 30.8459 55.7465 30.7922C55.3637 31.8962 50.0073 41.2479 49.0624 43.355L50.7931 43.056V43.056ZM72.8134 65.8156L63.1899 65.797C63.1499 67.3202 62.366 68.4159 61.0012 68.6975C59.5597 68.9953 60.3882 68.4465 59.2063 69.3596C56.945 71.1061 55.6894 69.0164 54.7574 68.8135C54.0881 68.668 51.713 68.8263 51.6336 65.7955C49.3141 65.7294 45.9893 65.4629 44.2549 64.4039C41.2781 64.4115 25.3255 64.5747 23.8118 64.4009C22.0123 64.1945 22.0086 62.0296 23.509 61.6607L38.6336 61.6176C38.2775 61.1119 37.9956 61.053 37.4381 60.5817C36.98 60.1939 36.7313 60.0302 36.3069 59.6081C35.3269 58.6329 35.0971 58.2168 34.3914 57.4205C32.2813 57.3664 30.1236 57.4095 28.0086 57.4106C26.4491 57.411 23.2637 57.8275 22.6035 56.6729C22.1261 55.838 22.6541 54.9426 23.3741 54.6988C23.9796 54.494 31.4071 54.6077 32.3611 54.6127C31.7839 53.2188 31.0057 52.1061 30.5526 50.3943C29.0135 50.4363 27.4507 50.4034 25.9083 50.4061C24.5015 50.4087 22.7505 50.6801 22.4523 49.2945C21.9413 46.9213 26.5519 47.6391 29.7861 47.6039L29.404 43.406C28.0063 43.406 26.6045 43.3965 25.2072 43.4086C23.8995 43.4196 22.422 43.4661 22.4205 42.0068C22.419 40.5343 23.8998 40.5989 25.2076 40.6076C26.6037 40.6171 28.0048 40.6084 29.4021 40.6091V30.8047C24.4294 30.8073 25.2231 30.8016 25.2079 25.906C25.1924 20.9378 24.4717 21.0285 29.4198 21.0025L29.4021 11.2033C24.3821 11.2464 16.8937 9.77311 16.8045 17.1496C16.5827 35.4697 16.9421 54.336 16.8064 72.8111L61.7877 72.8054C63.8018 72.793 64.4288 72.9842 64.4152 75.0784C64.4001 77.3477 64.4217 80.922 68.2753 81.1941C71.7109 81.4371 72.8213 78.7907 72.8107 75.7852C72.799 72.463 72.8115 69.1381 72.8134 65.8156V65.8156ZM60.5083 64.258C58.0671 65.0298 54.8013 62.0871 54.8799 60.0609C54.1516 60.2037 54.638 59.8076 54.4543 60.7257C54.373 61.1327 54.4554 61.1853 54.2918 61.6426C54.0654 62.2749 53.7524 62.5312 53.2989 62.7829C53.5945 63.4295 53.8292 63.4167 54.1822 64.142C54.508 64.8117 54.4592 65.1719 54.4755 65.9441C55.2291 65.9131 55.666 65.8946 56.2961 66.2272L57.4106 67.0726C58.3196 66.2241 58.6413 65.9856 60.2959 65.9373L60.5083 64.258V64.258ZM77.9958 36.6459C76.0244 37.1463 76.7856 37.1894 75.7002 38.0678C74.9998 38.6343 73.7431 38.8494 72.8462 38.3036C71.4939 37.4812 71.02 34.074 70.8023 32.4722C72.596 32.4548 72.3961 33.1264 73.539 33.227C74.8101 33.3388 75.1491 32.6944 75.7463 32.3051L75.4216 31.5228C74.6521 31.6343 73.9793 31.9317 73.0787 31.7556C71.6009 31.4672 71.1371 30.2774 70.1167 32.1441C69.7349 32.8418 70.6031 35.7453 70.8034 36.6705C71.2169 38.5784 71.5971 41.0222 72.1727 42.8202C73.0148 41.9864 73.9019 40.2176 74.7402 39.5558C75.7243 38.7791 78.5121 39.778 79.8214 40.0059C79.5776 39.1684 78.5616 37.1501 77.9958 36.6459V36.6459ZM66.3625 37.3852L68.5788 47.4119C68.6453 47.3839 68.694 47.3046 68.7065 47.3333L69.281 46.6927C69.5826 46.2784 69.5082 46.0929 70.0044 46.1548L67.1361 33.6714L66.3625 37.3852V37.3852ZM56.4639 42.5178L60.2109 47.4055L60.7347 45.6181L58.2588 42.2064L56.4639 42.5178ZM79.4222 23.2823C77.766 23.8413 75.9496 23.8813 74.1759 23.7392C73.7446 23.9815 73.3395 24.4721 72.7918 24.8409C71.1262 25.9635 69.4023 26.6071 67.2121 26.6041C64.083 26.5996 61.8932 25.2654 60.3156 23.701C56.6196 20.0349 56.4873 14.4223 59.6871 10.5026C59.7959 10.3691 59.8787 10.2898 59.9369 10.2248L60.2748 9.83963C60.1349 8.08668 60.1818 6.2264 60.7234 4.59175C59.2498 4.80567 60.1531 6.57109 58.9822 8.05569C57.6745 9.71377 56.16 8.95937 55.3478 9.64989C54.1516 10.6927 56.3467 11.1152 55.5984 13.7654C54.997 15.8948 53.3688 15.7659 53.2418 16.6658C53.1141 17.5695 53.8809 17.6202 54.4426 18.0261C54.861 18.3284 55.268 18.9313 55.5137 19.5768C56.3788 21.8502 54.6777 22.6949 55.1014 23.8057C55.9374 24.6009 57.3513 23.8991 58.7327 25.2839C60.1421 26.6971 59.3888 28.043 60.2109 28.9111C61.3107 29.3348 62.0878 27.7141 64.3087 28.4583C66.3073 29.1277 66.2241 30.7895 67.2094 30.7835C68.4488 30.7759 67.6585 29.387 69.9817 28.5037C72.2736 27.6325 73.0813 29.3435 74.2118 28.9104C75.0338 28.3521 74.2148 24.9551 77.5136 24.3141C78.6678 24.09 79.2276 24.5518 79.4222 23.2823V23.2823Z" fill="#CEF1A8"/>
</g>
<defs>
<clipPath id="clip0_1_21">
<rect width="83.9992" height="83.9992" fill="white"/>
</clipPath>
</defs>
</svg>
